<svg xmlns="http://www.w3.org/2000/svg" width="28" height="28" viewBox="0 0 28 28">
  <path id="clear" d="M91.734,73.981a1.615,1.615,0,0,0-.646-.58l-3.928-1.93,2.658-5.192a1.266,1.266,0,0,0-.08-1.23,2.208,2.208,0,0,0-.922-.822A2.248,2.248,0,0,0,87.59,64a1.316,1.316,0,0,0-1.056.674l-2.656,5.186-4.226-2.076,0-.008-.184-.08c-.026-.014-.05-.024-.078-.036l-.006,0a.257.257,0,0,0-.044-.018h0l-.058-.022-.168-.07-.008.018h0l-.026-.006-.07-.014c-.022,0-.046-.006-.076-.01l-.084-.008a.508.508,0,0,0-.06,0H78.7c-.034,0-.066,0-.09,0l-.074.006-.108.018-.112.026-.078.022-.024.008c-.02.006-.038.014-.054.02s-.032.01-.048.018l-.166.08-.062.036-.124.084c-.02.014-.04.03-.062.048l-.054.048a.5.5,0,0,0-.056.052c-.022.022-.044.044-.062.066a.452.452,0,0,0-.046.052c-.02.022-.036.046-.054.07s-.034.048-.044.062-.024.038-.034.056l-.012.02c-.014.022-.026.044-.034.06h0a18.385,18.385,0,0,1-2.632,3.746c-.016.018-.034.036-.04.044a21.589,21.589,0,0,1-2.218,2.11,25.272,25.272,0,0,1-7.36,4.174A1.591,1.591,0,0,0,64.012,80a1.566,1.566,0,0,0,.772,1.414L81.8,91.584a1.917,1.917,0,0,0,2.416-.052,26.625,26.625,0,0,0,5.716-7.842,20.759,20.759,0,0,0,2.074-8.818A1.545,1.545,0,0,0,91.734,73.981ZM81.916,85.174h0a1.554,1.554,0,0,0,.486-1.112,1.536,1.536,0,0,0-.462-1.122,1.645,1.645,0,0,0-2.286-.024l-2.37,2.266L74.1,83.276l1.884-1.292a1.566,1.566,0,0,0,.666-1.018,1.546,1.546,0,0,0-.268-1.184,1.643,1.643,0,0,0-2.252-.386l-3.04,2.084-2.1-1.258A27.836,27.836,0,0,0,74.5,76.7c.59-.488,1.154-1,1.678-1.516l11.23,6.27c-.128.31-.264.618-.406.918a23.052,23.052,0,0,1-4.23,6.09L80.13,86.88Zm6.83-9.385a16.822,16.822,0,0,1-.362,2.566L78.32,72.735c.38-.5.738-1.02,1.068-1.546Z" transform="translate(-64.01 -63.984)" fill="#818080"/>
</svg>
