<svg width="213.000000" height="166.000000" viewBox="0 0 213 166" fill="none" xmlns="http://www.w3.org/2000/svg" xmlns:xlink="http://www.w3.org/1999/xlink">
        <desc>
                        Created with Pixso.
        </desc>
        <defs/>
        <rect id="画板 2" width="213.333328" height="166.099915" transform="translate(-0.666672 -0.915771)" fill="#FFFFFF" fill-opacity="0"/>
        <path id="path" d="M47.33 56.33L42 56.33C38.8 56.33 36.66 58.46 36.66 61.66L36.66 93.66C36.66 96.86 38.8 99 42 99L47.33 99C50.53 99 52.66 96.86 52.66 93.66L52.66 61.66C52.66 58.46 50.53 56.33 47.33 56.33ZM74 40.33L68.66 40.33C65.46 40.33 63.33 42.46 63.33 45.66L63.33 93.66C63.33 96.86 65.46 99 68.66 99L74 99C77.19 99 79.33 96.86 79.33 93.66L79.33 45.66C79.33 42.46 77.19 40.33 74 40.33ZM100.66 72.33L95.33 72.33C92.13 72.33 90 74.46 90 77.66L90 93.66C90 96.86 92.13 99 95.33 99L100.66 99C103.86 99 106 96.86 106 93.66L106 77.66C106 74.46 103.86 72.33 100.66 72.33ZM149.2 56.86C151.86 57.4 154 59 155.6 60.6C157.2 62.2 158.26 64.86 158.8 67.53C159.33 70.19 158.8 72.86 157.73 75C156.66 77.13 155.06 79.26 152.93 80.86C150.8 82.46 148.13 83 145.46 83C142.8 83 140.13 81.93 138 80.86C135.86 79.26 134.26 77.13 133.2 75L118.26 80.86C120.4 86.2 124.13 91 128.93 94.2C133.73 97.4 139.06 99 144.93 99.53C150.8 99.53 156.13 97.93 160.93 95.26C165.73 92.06 169.46 87.8 172.13 82.46C174.26 77.13 175.33 71.26 174.26 65.93C173.2 60.06 171.06 54.73 166.8 50.46C163.06 46.2 157.73 43 152.39 41.93C147.06 40.33 141.2 40.86 135.33 42.46L140.66 57.4C144.39 56.33 147.06 56.33 149.2 56.86Z" fill="#818080" fill-opacity="1.000000" fill-rule="nonzero"/>
        <path id="path" d="M132.66 70.73C132.66 68.6 132.66 65.93 133.73 63.8C134.8 61.66 136.39 60.06 138 58.46L125.73 40.86C120.93 44.6 116.66 49.4 114 54.73C111.33 60.06 110.26 66.46 110.8 72.33L132.66 70.73Z" fill="#818080" fill-opacity="1.000000" fill-rule="nonzero"/>
        <path id="path" d="M203.6 -0.74C183.86 1.93 138 8.33 106 8.33C74 8.33 28.13 1.93 8.39 -0.74C3.59 -1.8 -0.67 1.93 -0.67 7.26L-0.67 132.6C-0.67 137.39 3.59 141.13 8.39 140.6C26 137.39 64.4 132.06 95.33 131L95.33 141.66C72.93 141.66 57.46 142.73 48.93 143.8C44.66 144.33 42 147.53 42 151.8L42 157.13C42 161.93 46.26 165.66 51.06 165.13C61.2 164.06 79.86 163 106 163C132.13 163 150.8 164.06 160.93 164.6C165.73 165.13 170 161.39 170 156.6L170 151.26C170 147 166.8 143.8 163.06 143.26C154.53 142.73 139.06 141.66 116.66 141.13L116.66 130.46C147.6 131.53 186 136.86 203.6 139.53C208.4 140.06 212.66 136.33 212.66 131.53L212.66 7.26C212.66 1.93 208.4 -1.8 203.6 -0.74ZM191.33 117.13C168.4 113.93 133.2 109.66 106 109.66C78.8 109.66 43.6 113.93 20.66 117.13L20.66 22.2C43.6 25.4 78.8 29.66 106 29.66C133.2 29.66 168.4 25.4 191.33 22.2L191.33 117.13Z" fill="#818080" fill-opacity="1.000000" fill-rule="nonzero"/>
</svg>
