<svg xmlns="http://www.w3.org/2000/svg" width="28" height="28" viewBox="0 0 28 28">
  <g id="help" transform="translate(-867 218)">
    <path id="路径_3" data-name="路径 3" d="M99.333,85.333a14,14,0,1,1-14,14A14,14,0,0,1,99.333,85.333Zm0,2.94a11.06,11.06,0,1,0,11.06,11.06,11.06,11.06,0,0,0-11.06-11.06Z" transform="translate(781.667 -303.333)" fill="#818080"/>
    <path id="路径_4" data-name="路径 4" d="M361.186,267.409v-.3a2.824,2.824,0,0,1,.359-1.405,3.435,3.435,0,0,1,.96-1.08c1.149-.907,1.845-1.491,2.061-1.707a4.03,4.03,0,0,0,.887-2.659,3.748,3.748,0,0,0-1.438-3.111A5.83,5.83,0,0,0,360.228,256a6.112,6.112,0,0,0-4.2,1.361,4.685,4.685,0,0,0-1.557,3.761h2.732a3.273,3.273,0,0,1,.6-2.118,2.622,2.622,0,0,1,2.254-.886,2.773,2.773,0,0,1,1.917.606,2.23,2.23,0,0,1,.672,1.686,2.265,2.265,0,0,1-.647,1.534l-.288.3a12.3,12.3,0,0,0-2.805,2.745,4.213,4.213,0,0,0-.48,2.118v.3Zm-1.342,4.322a1.962,1.962,0,0,0,1.319-.454,1.556,1.556,0,0,0,.023-2.356,2.029,2.029,0,0,0-1.342-.454,1.962,1.962,0,0,0-1.319.454,1.556,1.556,0,0,0,0,2.333A1.981,1.981,0,0,0,359.844,271.731Z" transform="translate(521.036 -467.866)" fill="#818080"/>
  </g>
</svg>
