<svg xmlns="http://www.w3.org/2000/svg" width="1023.999" height="1023.999" viewBox="0 0 1023.999 1023.999">
  <g id="组_1" data-name="组 1" transform="translate(-1216 -274)">
    <g id="我的-绩效曲线" transform="translate(1216 274)">
      <path id="路径_1" data-name="路径 1" d="M0,0,365.714,0H658.285Q1024,0,1024,365.714V658.285Q1024,1024,658.285,1024H365.714Q0,1024,0,658.285V365.714Q0,0,365.714,0Z" fill="#4085ac"/>
    </g>
    <path id="fsux_图表_分布曲线图" d="M710.4,790.956c-128.178,0-175.149-141.312-216.95-265.907S418.215,313.278,352.136,313.278c-111.855,0-159.226,256.352-159.226,358.26a39.807,39.807,0,0,1-79.613,0c0-86.778,42.594-437.873,238.839-437.873,128.178,0,175.149,141.311,216.945,265.907S644.317,711.343,710.4,711.343s111.459-123.8,119.417-167.186a40.556,40.556,0,1,1,79.613,15.521c-2.786,9.555-48.562,231.278-199.031,231.278Zm0,0" transform="translate(1232.26 228.689)" fill="#fff"/>
  </g>
</svg>
