<svg xmlns="http://www.w3.org/2000/svg" width="28" height="28" viewBox="0 0 28 28">
  <path id="setup" d="M27.71,11.109c-.164-.915-.692-1.506-1.345-1.506h-.142A3.535,3.535,0,0,1,22.8,5.977a4.329,4.329,0,0,1,.3-1.383,1.97,1.97,0,0,0-.605-2.3l-.041-.031L18.974.22,18.93.2a1.748,1.748,0,0,0-.736-.157,1.935,1.935,0,0,0-1.413.61c-.381.416-1.7,1.6-2.706,1.6S11.732,1.046,11.35.622A1.936,1.936,0,0,0,9.925,0,1.744,1.744,0,0,0,9.2.151l-.045.02-3.6,2.09-.042.031a1.967,1.967,0,0,0-.61,2.3,4.293,4.293,0,0,1,.3,1.385A3.535,3.535,0,0,1,1.782,9.6H1.639c-.653,0-1.18.591-1.344,1.506A19.889,19.889,0,0,0,0,14.012a19.885,19.885,0,0,0,.292,2.9c.164.915.692,1.506,1.345,1.506h.142a3.535,3.535,0,0,1,3.427,3.627,4.321,4.321,0,0,1-.3,1.383,1.973,1.973,0,0,0,.6,2.3l.041.03,3.407,2.016.043.02a1.728,1.728,0,0,0,.734.158,1.905,1.905,0,0,0,1.424-.637c.484-.556,1.8-1.705,2.766-1.705,1.05,0,2.4,1.288,2.785,1.739A1.906,1.906,0,0,0,18.148,28h0a1.724,1.724,0,0,0,.721-.153l.044-.02,3.532-2.066.042-.031a1.968,1.968,0,0,0,.608-2.3,4.37,4.37,0,0,1-.3-1.386,3.535,3.535,0,0,1,3.427-3.627h.14c.655,0,1.183-.591,1.347-1.506a19.71,19.71,0,0,0,.293-2.9A19.809,19.809,0,0,0,27.71,11.109ZM9.758,25.862,6.777,24.1a6.325,6.325,0,0,0,.4-2.052A5.586,5.586,0,0,0,2.2,16.354a16.713,16.713,0,0,1-.229-2.343A16.749,16.749,0,0,1,2.2,11.669,5.585,5.585,0,0,0,7.176,5.977a6.323,6.323,0,0,0-.4-2.047L9.951,2.086h0a9.64,9.64,0,0,0,1.2,1.08,4.972,4.972,0,0,0,2.921,1.173,4.973,4.973,0,0,0,2.9-1.15,9.583,9.583,0,0,0,1.2-1.06h0l3.057,1.8a6.327,6.327,0,0,0-.4,2.05,5.585,5.585,0,0,0,4.977,5.692,16.8,16.8,0,0,1,.229,2.343,16.733,16.733,0,0,1-.229,2.343,5.585,5.585,0,0,0-4.977,5.692,6.321,6.321,0,0,0,.4,2.048l-3.1,1.81a9.82,9.82,0,0,0-1.208-1.129,4.969,4.969,0,0,0-2.993-1.246,4.972,4.972,0,0,0-2.97,1.222A9.886,9.886,0,0,0,9.758,25.862ZM18.9,13.992a5.115,5.115,0,0,0-4.959-5.248,5.115,5.115,0,0,0-4.959,5.248,5.115,5.115,0,0,0,4.959,5.248A5.115,5.115,0,0,0,18.9,13.992Zm-4.959-3.165a3.086,3.086,0,0,1,2.991,3.165,3.086,3.086,0,0,1-2.991,3.166,3.086,3.086,0,0,1-2.991-3.166A3.085,3.085,0,0,1,13.942,10.827Z" transform="translate(-0.002 0)" fill="#707070"/>
</svg>
