<svg xmlns="http://www.w3.org/2000/svg" width="28" height="28" viewBox="0 0 28 28">
  <g id="stop-on" transform="translate(-879 -21)">
    <g id="组_3" data-name="组 3" transform="translate(500.457 -242.272)">
      <path id="路径_1" data-name="路径 1" d="M77.682,94.962a13.96,13.96,0,1,1,5.45-1.1A13.914,13.914,0,0,1,77.682,94.962Zm0-26.012a12.012,12.012,0,1,0,8.494,3.518A11.933,11.933,0,0,0,77.682,68.95Z" transform="translate(314.861 196.31)" fill="#818080"/>
    </g>
    <g id="暂停" transform="translate(910.309 164.708)">
      <path id="路径_8" data-name="路径 8" d="M386.511,306.8a1.139,1.139,0,0,0-1.111,1.164v12.243a1.112,1.112,0,1,0,2.222,0V307.964A1.135,1.135,0,0,0,386.511,306.8Zm6.36,0a1.139,1.139,0,0,0-1.111,1.164v12.243a1.112,1.112,0,1,0,2.222,0V307.964A1.139,1.139,0,0,0,392.871,306.8Z" transform="translate(-407 -443.793)" fill="#818080"/>
    </g>
  </g>
</svg>
