<svg xmlns="http://www.w3.org/2000/svg" width="22" height="22" viewBox="0 0 22 22">
  <path id="send" d="M159.462,187.516a1.625,1.625,0,0,0-1.84-.392l-18.384,7.994a2.048,2.048,0,0,0-1.166,1.848,2.113,2.113,0,0,0,1.012,1.966l2.871,1.616a.667.667,0,0,1,.292.361l1.925,5.457a1.886,1.886,0,0,0,1.316,1.255,1.649,1.649,0,0,0,1.636-.569l1.069-1.231a.548.548,0,0,1,.723-.114l4.606,3.009a1.634,1.634,0,0,0,.892.274,1.594,1.594,0,0,0,.714-.17,2.017,2.017,0,0,0,1.042-1.411l1.1-5.09,2.75-12.757a2.26,2.26,0,0,0-.554-2.045Zm-.615,1.72L155,207.083a.673.673,0,0,1-.346.471.532.532,0,0,1-.536-.035l-4.606-3.009a1.628,1.628,0,0,0-.889-.27,1.7,1.7,0,0,0-1.28.607l-1.069,1.231a.566.566,0,0,1-.419.2l1.636-5.152a.405.405,0,0,1,.066-.125l7.07-8.334c.244-.288-.06-.742-.364-.544l-11.377,7.485a1.906,1.906,0,0,0-.4-.309l-2.871-1.616a.712.712,0,0,1-.337-.655.688.688,0,0,1,.389-.617l18.384-7.994a.532.532,0,0,1,.615.132.726.726,0,0,1,.187.683Z" transform="translate(-138.07 -186.99)" fill="#707070"/>
</svg>
