<?xml version="1.0" standalone="no"?><!DOCTYPE svg PUBLIC "-//W3C//DTD SVG 1.1//EN" "http://www.w3.org/Graphics/SVG/1.1/DTD/svg11.dtd"><svg t="1658841825460" class="icon" viewBox="0 0 1024 1024" version="1.1" xmlns="http://www.w3.org/2000/svg" p-id="3229" xmlns:xlink="http://www.w3.org/1999/xlink" width="128" height="128"><defs><style type="text/css"></style></defs><path d="M755.2 769.28m-66.56 0a66.56 66.56 0 1 0 133.12 0 66.56 66.56 0 1 0-133.12 0Z" fill="#818080" p-id="3230"></path><path d="M558.08 875.52l46.08-43.52a83.2 83.2 0 0 1-33.28-64c0-60.16 84.48-111.36 184.32-111.36a201.6 201.6 0 0 1 28.16 0l57.6-55.04a369.92 369.92 0 0 0-85.76-10.88c-139.52 0-248.32 76.8-248.32 175.36a144.64 144.64 0 0 0 51.2 109.44zM906.88 630.4l-49.28 46.72c48.64 20.48 81.92 54.4 81.92 92.16 0 60.16-84.48 110.72-184.32 110.72a281.6 281.6 0 0 1-92.8-16l-50.56 48.64a326.4 326.4 0 0 0 143.36 31.36c138.88 0 248.32-76.8 248.32-174.72a163.2 163.2 0 0 0-96.64-138.88z" fill="#818080" p-id="3231"></path><path d="M565.12 983.04a31.36 31.36 0 0 1-23.68-10.24 31.36 31.36 0 0 1 0-44.8l380.16-364.16a32.64 32.64 0 0 1 44.8 46.72l-379.52 363.52a32.64 32.64 0 0 1-21.76 8.96zM709.76 531.84a37.76 37.76 0 0 1-10.88 26.88 35.84 35.84 0 0 1-26.88 11.52 47.36 47.36 0 0 1-16-3.2l-157.44-51.84a38.4 38.4 0 0 1-28.16-47.36 37.12 37.12 0 0 1 44.8-26.88c18.56 4.48 37.12 11.52 55.68 17.92l108.8 35.84a38.4 38.4 0 0 1 30.08 37.12z m67.2-166.4a36.48 36.48 0 0 1-40.32 37.76c-23.68-5.12-46.72-12.16-70.4-17.92l-99.84-28.16a37.12 37.12 0 0 1-30.08-33.92 37.12 37.12 0 0 1 17.92-35.84 41.6 41.6 0 0 1 35.84 0l113.92 28.8c14.72 3.84 30.08 7.68 44.8 12.8a36.48 36.48 0 0 1 28.16 36.48z m-380.16 39.68a40.96 40.96 0 0 1 43.52 39.04 39.04 39.04 0 0 1-38.4 37.76 40.32 40.32 0 0 1-42.88-39.04 37.12 37.12 0 0 1 37.76-37.76zM460.16 320a40.32 40.32 0 0 1-42.24-39.04 38.4 38.4 0 0 1 11.52-24.96 37.12 37.12 0 0 1 27.52-10.24 39.68 39.68 0 0 1 42.24 39.04 37.12 37.12 0 0 1-39.04 35.2zM337.92 552.96" fill="#818080" p-id="3232"></path><path d="M979.2 119.68L416.64 8.32a41.6 41.6 0 0 0-53.76 30.08l-134.4 369.28-49.28 133.76a39.04 39.04 0 0 0 40.32 55.68 40.96 40.96 0 0 0 36.48-31.36l148.48-414.08 23.04-64L928 192l-16 48c-29.44 88.96-58.88 177.92-90.24 266.24a39.04 39.04 0 0 0 40.32 54.4 41.6 41.6 0 0 0 33.92-31.36q64-176.64 117.76-352.64a40.32 40.32 0 0 0-34.56-56.96zM462.08 784.64a11.52 11.52 0 0 0-8.96-16.64L29.44 599.68l-11.52-3.84c0 19.2-5.12 36.48-6.4 54.4a192 192 0 0 0 41.6 140.8 208.64 208.64 0 0 0 80 55.04L448 988.8l16.64 6.4 21.12-104.96s-3.84-3.84-5.12-7.04a209.28 209.28 0 0 1-18.56-98.56z" fill="#818080" p-id="3233"></path></svg>