<?xml version="1.0" standalone="no"?><!DOCTYPE svg PUBLIC "-//W3C//DTD SVG 1.1//EN" "http://www.w3.org/Graphics/SVG/1.1/DTD/svg11.dtd"><svg t="1658590808669" class="icon" viewBox="0 0 1024 1024" version="1.1" xmlns="http://www.w3.org/2000/svg" p-id="3051" xmlns:xlink="http://www.w3.org/1999/xlink" width="128" height="128"><defs><style type="text/css"></style></defs><path d="M889.886 618.706c-6.992-3.244-14.423-4.889-22.085-4.889-20.374 0-39.079 11.877-47.653 30.258-51.433 110.272-170.339 184.362-295.883 184.362-176.01 0-319.204-143.147-319.204-319.1 0-84.963 33.387-164.167 94.011-223.022 59.937-58.187 139.912-90.231 225.193-90.231 73.003 0 144.49 25.381 201.293 71.467l33.854 27.465 74.178-73.062-27.19-23.884c-20.63-18.122-42.676-34.156-65.525-47.658l-0.209-0.124c-29.979-17.958-62.771-32.202-97.471-42.34-39.035-11.156-79.049-16.813-118.929-16.813C290.325 91.136 100 278.74 100 509.337c0 233.945 190.324 424.272 424.264 424.272 165.506 0 322.678-98.49 391.104-245.082 12.23-26.188 0.768-57.524-25.482-69.821z" fill="#818080" p-id="3052"></path><path d="M673.848 381.902c0.662 1.598 2.314 4.278 5.956 4.278l120.712 0.181 113.305 0.182c1.855 0 3.464-0.975 4.52-1.836 1.629-1.475 2.478-3.244 2.523-5.259v-34.744l0.734-199.289v-0.043l0.002-0.044c0.015-1.766-0.553-3.207-1.737-4.404-1.415-1.427-3.555-2.314-5.585-2.314L675.072 374.339c-2.779 2.776-1.781 6.214-1.224 7.563z" fill="#818080" p-id="3053"></path></svg>