<?xml version="1.0" standalone="no"?><!DOCTYPE svg PUBLIC "-//W3C//DTD SVG 1.1//EN" "http://www.w3.org/Graphics/SVG/1.1/DTD/svg11.dtd"><svg t="1658591029260" class="icon" viewBox="0 0 1024 1024" version="1.1" xmlns="http://www.w3.org/2000/svg" p-id="16568" xmlns:xlink="http://www.w3.org/1999/xlink" width="128" height="128"><defs><style type="text/css"></style></defs><path d="M785.01 180.2m-15.71 0a15.71 15.71 0 1 0 31.42 0 15.71 15.71 0 1 0-31.42 0Z" fill="#818080" p-id="16569"></path><path d="M899.33 45.92H124.67a100.11 100.11 0 0 0-100 100v571.65a100.11 100.11 0 0 0 100 100H472v80.35H264.56a40 40 0 1 0 0 80h244c1.12 0.09 2.26 0.15 3.4 0.15s2.28-0.06 3.4-0.15h244a40 40 0 1 0 0-80H552v-80.35h347.33a100.11 100.11 0 0 0 100-100V145.92a100.11 100.11 0 0 0-100-100z m20 671.66a20 20 0 0 1-20 20H124.67a20 20 0 0 1-20-20V145.92a20 20 0 0 1 20-20h774.66a20 20 0 0 1 20 20z" fill="#818080" p-id="16570"></path><path d="M865 300a15 15 0 0 0-15 15v353.29H174V195.2h548.5a15 15 0 0 0 0-30h-553a25.51 25.51 0 0 0-25.5 25.48v482.13a25.51 25.51 0 0 0 25.48 25.48h685.09A25.51 25.51 0 0 0 880 672.81V315a15 15 0 0 0-15-15z" fill="#818080" p-id="16571"></path></svg>