<?xml version="1.0" encoding="UTF-8" standalone="no"?>
<svg
   t="1658587129155"
   class="icon"
   viewBox="0 0 1024 1024"
   version="1.1"
   p-id="6589"
   width="128"
   height="128"
   id="svg1918"
   sodipodi:docname="manualy.svg"
   inkscape:version="1.1 (c68e22c387, 2021-05-23)"
   xmlns:inkscape="http://www.inkscape.org/namespaces/inkscape"
   xmlns:sodipodi="http://sodipodi.sourceforge.net/DTD/sodipodi-0.dtd"
   xmlns="http://www.w3.org/2000/svg"
   xmlns:svg="http://www.w3.org/2000/svg">
  <sodipodi:namedview
     id="namedview1920"
     pagecolor="#505050"
     bordercolor="#eeeeee"
     borderopacity="1"
     inkscape:pageshadow="0"
     inkscape:pageopacity="0"
     inkscape:pagecheckerboard="0"
     showgrid="false"
     inkscape:zoom="2.8284271"
     inkscape:cx="92.454212"
     inkscape:cy="62.932504"
     inkscape:window-width="2240"
     inkscape:window-height="1306"
     inkscape:window-x="-11"
     inkscape:window-y="-11"
     inkscape:window-maximized="1"
     inkscape:current-layer="svg1918"
     inkscape:snap-page="true"
     inkscape:snap-text-baseline="true"
     inkscape:snap-center="true"
     inkscape:snap-object-midpoints="true"
     inkscape:snap-midpoints="true"
     inkscape:snap-smooth-nodes="true"
     inkscape:snap-intersection-paths="true"
     inkscape:object-paths="true"
     inkscape:snap-bbox="true" />
  <defs
     id="defs1906">
    <linearGradient
       id="linearGradient39713"
       inkscape:swatch="solid">
      <stop
         style="stop-color:#818080;stop-opacity:1;"
         offset="0"
         id="stop39711" />
    </linearGradient>
    <style
       type="text/css"
       id="style1904" />
  </defs>
  <path
     id="path1908"
     style="fill:#818080;fill-opacity:1;stroke-width:0.125"
     transform="scale(8)"
     d="M 56.402344,5.8710938 A 57.493334,57.493334 0 0 0 34.892578,13.125 C 7.1485778,29.146334 -2.1841874,64.885594 14.007812,92.933594 c 1.472,2.549332 10.708329,-2.784651 9.236329,-5.333985 C 9.9854736,64.628943 17.611803,35.427994 40.230469,22.361328 a 46.826666,46.826666 0 0 1 35.984375,-4.564453 48.122666,48.122666 0 0 1 9.74414,3.861328 l -2.564453,1.482422 a 4.2666666,4.2666666 0 0 0 -1.564453,5.830078 l 1.06836,1.845703 a 4.2666666,4.2666666 0 0 0 5.828124,1.5625 l 10.00586,-5.78125 a 5.296,5.296 0 0 0 0.21289,-0.117187 l 0.865235,-0.501953 a 4.2666666,4.2666666 0 0 0 1.562503,-5.830078 l -1.06836,-1.845704 a 4.256,4.256 0 0 0 -2.810549,-2.041015 c -5.6,-3.973334 -11.850458,-6.93862 -18.453125,-8.7519534 A 57.493334,57.493334 0 0 0 56.402344,5.8710938 Z M 113.22852,36.044922 a 1.0666666,1.0666666 0 0 0 -0.84766,0.09375 l -7.39844,4.271484 a 1.0666666,1.0666666 0 0 0 -0.39453,1.439453 29.162666,29.162666 0 0 1 0.15039,0.277344 c 12.29333,22.773334 4.56437,51.210443 -17.654296,64.037107 a 46.826666,46.826666 0 0 1 -35.984375,4.57227 48.122666,48.122666 0 0 1 -9.898437,-3.94727 l 2.693359,-1.55273 a 4.2666666,4.2666666 0 0 0 1.5625,-5.828127 L 44.390625,97.5625 A 4.2666666,4.2666666 0 0 0 38.5625,96 l -11.083984,6.40039 a 4.2666666,4.2666666 0 0 0 -1.5625,5.82813 l 0.548828,0.94336 a 5.296,5.296 0 0 0 0.117187,0.21484 v -0.006 l 0.400391,0.69336 a 4.2506666,4.2506666 0 0 0 2.517578,1.96875 58.794666,58.794666 0 0 0 18.773438,8.97461 57.493334,57.493334 0 0 0 44.144531,-5.61524 C 119.84197,99.57301 129.28104,64.494895 113.87305,36.601562 a 1.0666666,1.0666666 0 0 0 -0.64453,-0.55664 z" />
  <path
     id="path33521"
     style="opacity:1;fill:#818080;fill-opacity:1;fill-rule:nonzero;stroke:#f90000;stroke-width:0;stroke-miterlimit:4;stroke-dasharray:none;stroke-opacity:1"
     transform="scale(8)"
     d="M 65.197266,5.5 C 62.912541,5.4741983 59.841703,5.5506277 58.380859,5.6953125 46.332434,6.8886117 35.456891,11.4869 26.294922,19.259766 c -2.247413,1.90667 -5.4663,5.217939 -7.355469,7.566406 -6.678405,8.302073 -11.0133105,18.522859 -12.3515624,29.123047 -0.3621505,2.868565 -0.4000309,3.60233 -0.3964844,7.558593 0.00372,4.154801 0.064185,5.121076 0.53125,8.351563 0.9892261,6.842053 3.2129754,13.496312 6.5937498,19.728516 0.879945,1.622114 1.055025,1.814006 1.734375,1.916015 1.799187,0.270159 5.076784,-1.219584 7.052735,-3.205078 0.8244,-0.82838 1.168693,-1.374403 1.246093,-1.978516 0.03419,-0.266851 -0.02764,-0.456054 -0.320312,-0.992187 -1.557318,-2.85274 -2.80041,-5.613109 -3.675781,-8.15625 C 16.394188,70.574394 15.894334,61.46868 17.902344,52.708984 19.127885,47.362714 21.159166,42.442962 24.011719,37.910156 31.29769,26.332491 43.372897,18.491947 56.9375,16.53125 c 3.575673,-0.516846 8.519741,-0.610423 11.740234,-0.222656 4.557175,0.548712 8.459026,1.517795 12.507813,3.109375 1.484553,0.583579 4.771484,2.127349 4.771484,2.240234 0,0.03415 -0.621183,0.415737 -1.380859,0.847656 -1.45671,0.828225 -2.146066,1.369117 -2.585938,2.033203 -0.751953,1.135243 -0.879619,2.708474 -0.322265,3.96875 0.458423,1.036575 1.581154,2.792969 2.082031,3.25586 1.082484,1.000383 2.589647,1.365879 3.998047,0.970703 0.354792,-0.09955 2.239717,-1.137022 5.927734,-3.261719 2.974181,-1.713448 5.751968,-3.336857 6.171875,-3.607422 1.311274,-0.844906 1.924004,-1.878977 2.000004,-3.378906 0.0552,-1.088386 -0.0929,-1.558027 -0.98047,-3.121094 -1.043024,-1.836853 -1.712468,-2.505712 -2.927737,-2.923828 -0.259614,-0.08932 -1.008539,-0.520251 -1.664062,-0.958984 C 87.498292,9.6080365 77.66175,6.2587484 67.130859,5.5605469 66.632769,5.5275233 65.958841,5.5086006 65.197266,5.5 Z" />
  <path
     id="path6900"
     style="fill:#818080;fill-opacity:1;stroke:none;stroke-width:0.057587;paint-order:stroke fill markers"
     transform="scale(8)"
     d="m 44.160156,41.083984 c -0.492947,6.4e-5 -0.9811,0.08957 -1.445312,0.263672 -1.401394,0.539907 -2.487773,1.714506 -2.957032,3.199219 -0.494968,1.565741 -0.256617,3.287112 0.65625,4.724609 0.707139,1.093278 1.639231,1.733498 2.603516,2.421875 1.465694,1.019072 3.110355,2.187145 4.820313,5.332032 2.024965,3.711782 4.467855,10.41267 5.779297,14.158203 l -5.63086,-2.921875 c -0.816415,-0.398198 -1.683999,-0.607422 -2.583984,-0.607422 -2.33997,0 -4.519771,1.464544 -5.509766,3.705078 -1.420717,3.225853 -0.103695,7.044443 2.898438,8.515625 0.05142,0.02023 5.188326,2.903532 12.304687,6.392578 l 1.169922,0.566406 c 4.551338,2.254055 8.852711,4.367188 13.847656,4.367188 2.378563,0 4.76295,-0.473246 7.263672,-1.431641 8.845644,-3.374326 10.18893,-9.163892 10.8125,-14.8125 0.584978,-5.43946 -5.476647,-23.028225 -5.740234,-23.777343 -0.630013,-1.828872 -2.360175,-3.042969 -4.314453,-3.042969 -0.540002,0 -1.073599,0.101187 -1.587891,0.296875 -0.46926,0.182223 -1.008674,0.507209 -1.484375,0.912109 -0.835683,-1.930126 -2.692621,-3.185547 -4.730469,-3.185547 -0.617186,0 -1.216328,0.119963 -1.794922,0.335938 -1.144247,0.431948 -2.094391,1.256332 -2.705078,2.349609 -0.970727,-1.21476 -2.424182,-1.943359 -3.986328,-1.943359 -0.617129,0 -1.214375,0.121917 -1.792969,0.33789 -1.7164,0.654627 -3.234488,2.104529 -3.80664,3.994141 -1.144248,-1.842336 -2.436189,-3.738318 -3.664063,-5.027344 -2.217866,-2.335026 -5.496926,-5.123047 -8.421875,-5.123047 z m 0.71875,2.470704 c 1.607942,0.368855 3.803059,1.913883 6.126953,4.353515 2.822113,2.962664 6.395003,10.041871 6.433594,10.109375 0.269973,0.560133 0.907846,0.789631 1.441406,0.533203 0.540003,-0.249666 0.803387,-0.891392 0.597657,-1.478515 l -1.023438,-2.949219 c -0.842182,-2.429519 0.951539,-4.116344 2.359375,-4.65625 0.327831,-0.128184 0.662085,-0.195313 1.015625,-0.195313 1.253525,0 2.385681,0.83512 2.816406,2.056641 l 1.408204,4.050781 c 0.205671,0.60741 0.855001,0.911288 1.433593,0.695313 0.578595,-0.215915 0.867838,-0.89845 0.66211,-1.50586 L 67.513672,52.71875 c -0.269973,-0.796335 -0.245012,-1.63865 0.0957,-2.394531 0.340715,-0.755882 0.933432,-1.329864 1.685547,-1.613281 0.327832,-0.128186 0.662084,-0.195313 1.015625,-0.195313 1.253524,0 2.38431,0.829467 2.808594,2.064453 l 1.658203,4.777344 c 0.205671,0.60741 0.854998,0.911287 1.433594,0.695312 0.578593,-0.215913 0.867836,-0.896496 0.662109,-1.503906 l -0.982422,-2.841797 c 0.295681,-0.34422 0.930549,-0.883279 1.40625,-1.072265 0.257146,-0.107957 0.547223,-0.148438 0.830078,-0.148438 1.009261,0 1.916628,0.613775 2.21875,1.484375 1.677641,5.134333 5.921726,19.266109 5.625,22.708985 -0.578594,5.324677 -1.69071,9.953905 -9.353515,12.882812 -2.269284,0.870604 -4.417383,1.289062 -6.519532,1.289062 -4.487093,10e-7 -8.383099,-1.915506 -12.902344,-4.142578 l -1.169921,-0.568359 c -7.05206,-3.45529 -12.136817,-6.310349 -12.246094,-6.371094 -1.947836,-0.944806 -2.769708,-3.373122 -1.863281,-5.417969 0.630012,-1.457722 1.972275,-2.349609 3.476562,-2.349609 0.572151,0 1.131986,0.129388 1.626953,0.392578 l 8.080078,4.183594 c 0.404958,0.209215 0.900103,0.142437 1.234375,-0.167969 0.347158,-0.303702 0.470135,-0.810445 0.322266,-1.255859 -0.167137,-0.465641 -3.882633,-11.770443 -6.884766,-17.277344 -1.97993,-3.623991 -4.025592,-5.061447 -5.523437,-6.121094 -0.842125,-0.580361 -1.522665,-1.072438 -1.972656,-1.767578 -0.520735,-0.830087 -0.66841,-1.809087 -0.398438,-2.679687 0.257146,-0.80986 0.842425,-1.42376 1.607422,-1.720703 0.388926,-0.148472 0.858551,-0.156155 1.394531,-0.0332 z" />
  <path
     style="opacity:1;fill:#818080;fill-opacity:1;fill-rule:nonzero;stroke:none;stroke-width:0;stroke-miterlimit:4;stroke-dasharray:none;stroke-dashoffset:175;stroke-opacity:1;paint-order:stroke fill markers"
     d=""
     id="path39964"
     transform="scale(8)" />
  <g
     id="g40299">
    <g
       id="g40295" />
  </g>
  <path
     style="opacity:1;fill:#818080;fill-opacity:1;fill-rule:nonzero;stroke:none;stroke-width:0;stroke-miterlimit:4;stroke-dasharray:none;stroke-dashoffset:175;stroke-opacity:1;paint-order:markers fill stroke"
     d="m 67.8556,88.647307 c -2.3186,-0.33784 -4.543011,-1.089453 -8.009306,-2.706288 -1.478001,-0.689405 -8.823607,-4.344574 -10.348819,-5.149567 -4.682491,-2.471372 -6.263217,-3.369541 -6.718132,-3.817247 -1.105728,-1.088202 -1.473093,-2.841657 -0.910195,-4.34442 0.62854,-1.678008 2.140747,-2.693504 3.803409,-2.554113 0.763442,0.064 0.971224,0.160576 6.034626,2.80474 3.167593,1.65415 3.484307,1.800445 3.905381,1.803939 0.389851,0.0032 0.498884,-0.03514 0.730614,-0.257152 0.149808,-0.143526 0.313915,-0.415212 0.364682,-0.603747 0.08461,-0.314233 0.03962,-0.498672 -0.540124,-2.213918 -2.461705,-7.28329 -5.172277,-13.846545 -6.868158,-16.630237 -1.148971,-1.885971 -2.621266,-3.49693 -4.354103,-4.764183 -2.248247,-1.644181 -2.566016,-1.958329 -2.941487,-2.907973 -0.24983,-0.631872 -0.249939,-1.634445 -2.37e-4,-2.195709 0.413164,-0.928686 1.308423,-1.580171 2.171442,-1.580171 2.147984,0 6.029451,3.021552 8.609056,6.701774 1.235689,1.762909 2.675955,4.160992 4.04393,6.733255 0.374876,0.704897 0.78412,1.367498 0.909429,1.472446 0.44544,0.37306 1.044069,0.330197 1.480253,-0.105988 0.507423,-0.507422 0.491943,-0.691411 -0.236096,-2.806156 -0.618476,-1.796496 -0.645303,-1.908117 -0.641819,-2.67036 0.0032,-0.691748 0.03697,-0.86466 0.259239,-1.325825 0.489805,-1.016255 1.706026,-1.960603 2.789745,-2.166126 1.093808,-0.207436 2.347788,0.41132 2.956871,1.459019 0.113046,0.194454 0.549524,1.347922 0.969951,2.563262 0.860103,2.486325 0.978212,2.682995 1.657216,2.759528 0.540211,0.06089 0.919598,-0.146965 1.135259,-0.621972 0.09234,-0.203384 0.168763,-0.443799 0.169831,-0.534257 0.0011,-0.09046 -0.200822,-0.763776 -0.448645,-1.496263 -0.414948,-1.226466 -0.447971,-1.384727 -0.417542,-2.001047 0.05762,-1.167052 0.697167,-2.162396 1.707817,-2.657921 0.63664,-0.312147 1.754919,-0.314351 2.38418,-0.0047 0.498907,0.245506 1.105982,0.815029 1.337374,1.254648 0.08591,0.163228 0.564139,1.46706 1.062719,2.897402 0.707812,2.030595 0.961872,2.655987 1.159092,2.853207 0.701886,0.701885 1.87775,0.156358 1.878673,-0.871586 1.77e-4,-0.220001 -0.201236,-0.944551 -0.501875,-1.805217 l -0.502206,-1.437712 0.428862,-0.388274 c 0.665459,-0.602479 1.046718,-0.768675 1.768792,-0.771042 0.522288,-0.0017 0.692497,0.03874 1.092087,0.259568 0.752872,0.416057 0.926862,0.699467 1.465477,2.387088 2.67969,8.396168 4.849745,16.815943 5.183044,20.110122 0.115267,1.139238 0.0034,2.34798 -0.405225,4.380479 -0.690256,3.432919 -2.160495,5.811368 -4.738794,7.666089 -1.597869,1.149441 -4.576607,2.456126 -6.768201,2.969013 -1.925864,0.4507 -4.322619,0.57375 -6.108087,0.313591 z"
     id="path43517"
     transform="scale(8)" />
  <path
     style="opacity:1;fill:#818080;fill-opacity:1;fill-rule:nonzero;stroke:none;stroke-width:0;stroke-miterlimit:4;stroke-dasharray:none;stroke-dashoffset:175;stroke-opacity:1;paint-order:markers fill stroke"
     d="M 68.412581,91.083265 C 65.83742,90.79619 63.29229,90.042514 60.148271,88.635997 57.078611,87.262745 47.265086,82.286998 43.133514,80.009012 41.291259,78.993266 40.314724,77.901066 39.700744,76.16965 39.443646,75.444639 39.4261,75.316357 39.425569,74.157824 c -6.45e-4,-1.405903 0.113537,-1.949342 0.633524,-3.015201 1.383333,-2.83553 4.711213,-4.172229 7.493838,-3.010027 0.243068,0.101521 1.691002,0.833032 3.21763,1.625579 1.526629,0.792549 2.795157,1.421529 2.818952,1.397734 0.09937,-0.09937 -1.985541,-5.728841 -3.297792,-8.904375 -1.107041,-2.678942 -2.509006,-5.523017 -3.32423,-6.743652 -0.878142,-1.314842 -2.158291,-2.589007 -3.758867,-3.7413 -1.482391,-1.067209 -2.048654,-1.561917 -2.523357,-2.204499 -1.877802,-2.541886 -1.32491,-6.088952 1.204434,-7.727034 1.784523,-1.155711 3.945026,-0.853576 6.612772,0.924761 2.609777,1.739695 4.815436,4.066044 6.953784,7.334286 0.405539,0.619823 0.76265,1.126952 0.793582,1.126952 0.03093,0 0.126202,-0.196984 0.211711,-0.437741 0.382031,-1.07563 1.466632,-2.31997 2.626911,-3.013796 0.87652,-0.524144 1.505042,-0.715289 2.518217,-0.765835 1.463941,-0.07303 2.57006,0.329686 3.632823,1.322653 0.299176,0.279528 0.566808,0.508233 0.594738,0.508233 0.02793,0 0.170374,-0.173821 0.316543,-0.38627 0.732223,-1.06425 1.958307,-1.865638 3.278265,-2.142728 1.239632,-0.260226 2.527884,0.0099 3.660915,0.767761 0.73651,0.492608 1.144893,0.925664 1.619214,1.717043 0.174823,0.291682 0.326759,0.542557 0.337636,0.557502 0.01088,0.01494 0.291962,-0.155374 0.624634,-0.378486 0.78648,-0.527464 1.523855,-0.753842 2.451067,-0.752491 1.276136,0.0019 2.368577,0.451315 3.238061,1.332215 0.641034,0.64945 0.859914,1.076861 1.444643,2.820988 2.163236,6.452478 3.876118,12.515278 4.73215,16.749592 0.766398,3.790948 0.801242,5.490116 0.179634,8.759851 -0.667499,3.511123 -2.004151,6.092177 -4.249933,8.206559 -2.415749,2.274404 -6.528537,4.172154 -10.458293,4.825736 -1.218446,0.202647 -3.539571,0.289222 -4.596194,0.171431 z m 3.768558,-2.337389 c 3.63979,-0.484556 7.589081,-2.221094 9.869622,-4.339762 2.139922,-1.988029 3.193185,-4.308352 3.781474,-8.330532 0.244055,-1.668622 0.242797,-2.105556 -0.01101,-3.827835 -0.28506,-1.93433 -1.221202,-5.948487 -2.256751,-9.676904 -1.117944,-4.025074 -3.062264,-10.436104 -3.306258,-10.901764 -0.457115,-0.872399 -1.673332,-1.400817 -2.67247,-1.161128 -0.435266,0.104419 -1.578571,0.866373 -1.674298,1.115834 -0.0281,0.07324 0.172926,0.778245 0.44673,1.566685 0.538274,1.55 0.595033,1.976303 0.322614,2.423083 -0.193666,0.317621 -0.725266,0.528807 -1.096549,0.435621 -0.531982,-0.13352 -0.637264,-0.338694 -1.610366,-3.138309 -0.513373,-1.476973 -1.024391,-2.829537 -1.135596,-3.005695 -0.28054,-0.444404 -0.87958,-0.966543 -1.36548,-1.190189 -0.579301,-0.266636 -1.742623,-0.265593 -2.324443,0.0021 -0.590482,0.271661 -1.19524,0.866003 -1.510294,1.484281 -0.217697,0.427219 -0.279716,0.674965 -0.311157,1.242988 -0.0371,0.670185 -0.01363,0.786718 0.424383,2.106988 0.426657,1.286054 0.455541,1.424639 0.362002,1.736842 -0.203432,0.678998 -0.895873,0.980618 -1.515562,0.660165 -0.348242,-0.180083 -0.427518,-0.353049 -1.23348,-2.691264 -0.829922,-2.407721 -0.951116,-2.66324 -1.519121,-3.202853 -1.018977,-0.968041 -2.513407,-1.063512 -3.79312,-0.242323 -0.599416,0.384644 -1.29199,1.155451 -1.563744,1.740383 -0.200091,0.430683 -0.236542,0.630156 -0.238284,1.303961 -0.002,0.75733 0.02758,0.881504 0.61571,2.588216 0.339771,0.985996 0.630113,1.755679 0.645204,1.710406 0.01509,-0.04527 -0.237236,-0.891771 -0.560724,-1.881109 -0.573316,-1.753394 -0.587212,-1.817757 -0.550551,-2.550096 0.0576,-1.150686 0.501506,-1.887921 1.602158,-2.660879 1.34467,-0.944325 2.625837,-0.907247 3.727104,0.107865 0.531028,0.489484 0.641571,0.716498 1.461434,3.001226 1.021382,2.846299 1.122007,2.998934 1.97707,2.998934 0.453556,0 0.810282,-0.24301 0.990744,-0.674914 0.183504,-0.439188 0.156777,-0.627071 -0.28407,-1.996952 -0.379642,-1.179687 -0.403506,-1.310094 -0.368342,-2.012716 0.05853,-1.169414 0.549994,-1.999087 1.493871,-2.521884 0.43204,-0.239299 0.54743,-0.262328 1.313345,-0.262105 0.979173,2.83e-4 1.345749,0.147611 2.003231,0.805092 0.464842,0.464842 0.444431,0.419401 1.464549,3.260528 0.980349,2.730366 1.148856,3.09811 1.50369,3.281602 0.445153,0.230198 1.013794,0.119413 1.367357,-0.266391 0.432324,-0.471746 0.402821,-0.905381 -0.180055,-2.646456 l -0.46836,-1.399012 0.441722,-0.397145 c 0.591139,-0.531485 0.873789,-0.664851 1.518773,-0.716625 0.969156,-0.07779 1.717265,0.337761 2.148204,1.193273 0.659895,1.310041 3.48653,11.036638 4.681521,16.109355 0.852539,3.619016 1.017465,4.633059 1.020674,6.275573 0.003,1.563401 -0.148094,2.643406 -0.624042,4.459031 -0.749656,2.85975 -2.189751,5.002729 -4.460619,6.637766 -0.923026,0.664584 -3.065036,1.745021 -4.517075,2.278427 -2.258943,0.829823 -3.891327,1.120465 -6.293061,1.120465 -2.741828,0 -5.094014,-0.598278 -8.843092,-2.249239 C 59.33845,85.68316 50.353728,81.203153 47.597125,79.72739 43.096613,77.318017 42.637731,76.994285 42.05515,75.817651 c -0.275857,-0.557148 -0.32151,-0.743175 -0.359197,-1.463678 -0.07055,-1.34878 0.302344,-2.322114 1.227815,-3.204864 0.711802,-0.678944 1.334244,-0.949528 2.291435,-0.996113 0.689497,-0.03356 0.817548,-0.01212 1.458407,0.244194 0.3864,0.15454 1.800112,0.853174 3.141584,1.552519 5.453241,2.842918 5.745612,2.965494 6.340087,2.65808 0.290961,-0.150463 0.634232,-0.706022 0.634232,-1.02646 0,-0.503042 -2.172219,-6.655762 -3.721335,-10.540523 -3.14366,-7.883443 -4.661231,-10.243259 -8.434406,-13.115472 -2.026724,-1.542781 -2.365711,-1.914115 -2.654624,-2.907941 -0.491959,-1.69228 0.648889,-3.417202 2.255026,-3.40952 1.864891,0.0089 5.163692,2.405845 7.740707,5.624437 1.11782,1.396113 2.87498,4.209656 4.600075,7.365582 0.960689,1.757505 1.188384,2.043089 1.680677,2.10797 0.662206,0.08727 1.367646,-0.4877 1.356394,-1.105538 l -0.0059,-0.324675 -0.119463,0.382824 c -0.145441,0.466074 -0.349295,0.706686 -0.738077,0.871166 -0.353387,0.149504 -0.773496,0.04444 -1.04841,-0.262186 -0.0968,-0.10797 -0.604953,-0.991804 -1.129226,-1.964075 -1.608987,-2.983887 -3.450764,-5.911761 -4.670453,-7.424622 -1.25751,-1.559774 -3.70443,-3.731714 -5.147458,-4.568998 -1.388588,-0.805698 -2.63273,-1.061575 -3.402443,-0.699767 -1.203615,0.565766 -1.825343,1.789364 -1.584385,3.118167 0.215169,1.186582 0.718615,1.813399 2.479231,3.086774 2.793424,2.020359 4.184588,3.618261 5.764394,6.621028 1.539251,2.925687 4.012743,9.115936 6.123817,15.325689 0.587729,1.728811 0.595587,1.764077 0.472095,2.118439 -0.147636,0.423647 -0.593755,0.764081 -1.000439,0.763438 -0.184929,-2.65e-4 -1.667011,-0.721183 -4.552571,-2.214386 -2.384271,-1.233798 -4.495781,-2.270577 -4.769444,-2.341857 -2.06989,-0.539138 -4.071599,0.755112 -4.649679,3.006354 -0.486463,1.894456 0.400599,3.78292 2.251212,4.792597 7.27615,3.969802 15.640527,8.144013 18.933982,9.448933 1.872842,0.742049 4.005383,1.300929 5.637978,1.477557 0.777788,0.08415 2.872573,0.04655 3.724364,-0.06685 z"
     id="path43556"
     transform="scale(8)" />
  <path
     style="opacity:1;fill:#818080;fill-opacity:1;fill-rule:nonzero;stroke:none;stroke-width:0;stroke-miterlimit:4;stroke-dasharray:none;stroke-dashoffset:175;stroke-opacity:1;paint-order:markers fill stroke"
     d="m 68.395031,91.078349 c -2.101248,-0.203391 -4.535065,-0.870074 -7.141906,-1.956343 -1.403595,-0.584877 -3.143053,-1.416184 -7.51301,-3.590553 -4.914901,-2.44552 -10.650264,-5.464695 -11.625827,-6.119998 -1.088775,-0.731352 -2.015282,-1.994343 -2.449099,-3.338552 -0.296275,-0.918027 -0.367761,-2.345977 -0.166185,-3.319599 0.663027,-3.202464 3.595874,-5.412856 6.632042,-4.998356 0.987101,0.13476 1.418806,0.319697 4.603866,1.972246 1.555635,0.807132 2.840075,1.433041 2.854313,1.390909 0.06176,-0.182757 -2.447017,-6.851915 -3.62784,-9.644007 -2.417456,-5.716151 -3.699242,-7.512966 -7.093036,-9.943055 -1.923087,-1.377005 -2.83076,-2.563433 -3.187343,-4.166208 -0.172436,-0.775068 -0.135183,-2.001982 0.08174,-2.692122 0.378084,-1.202859 1.43317,-2.531113 2.398494,-3.019475 2.575366,-1.30289 5.754913,-0.01951 9.68142,3.907787 1.440601,1.44089 2.157861,2.33364 3.51247,4.37186 0.450737,0.678204 0.834082,1.247659 0.85188,1.265456 0.0178,0.0178 0.193132,-0.297955 0.389634,-0.70167 1.046187,-2.149412 3.09861,-3.518262 5.275197,-3.518262 1.312803,0 2.388019,0.432609 3.380866,1.360278 0.306442,0.286324 0.572287,0.505086 0.590768,0.486136 0.01848,-0.01895 0.214377,-0.267653 0.435326,-0.552674 0.701952,-0.905513 1.427295,-1.426845 2.474145,-1.77826 1.707099,-0.573055 3.415559,-0.243899 4.825851,0.929757 0.433668,0.360902 1.316205,1.501138 1.432946,1.851364 0.02001,0.06002 0.277254,-0.062 0.631487,-0.299544 1.381692,-0.926526 3.113115,-1.02218 4.645104,-0.256623 0.603102,0.301378 1.473285,1.151096 1.7976,1.755322 0.626178,1.166626 3.303678,9.825834 4.535482,14.668049 1.299714,5.109167 1.730637,8.1506 1.466105,10.347715 -0.719925,5.979495 -2.598066,9.46908 -6.500499,12.077935 -3.855305,2.577348 -8.916958,3.924291 -13.191993,3.510487 z m 3.464051,-2.296367 c 3.831522,-0.438908 8.144799,-2.35345 10.431223,-4.630125 1.342393,-1.336669 2.150847,-2.663439 2.750111,-4.513265 0.582336,-1.797575 1.065604,-4.77427 0.961554,-5.92271 -0.266598,-2.942569 -1.661657,-8.71079 -3.972846,-16.426727 -1.484758,-4.956886 -1.706527,-5.601545 -2.062557,-5.995628 -0.749651,-0.829774 -1.983814,-1.074353 -2.891928,-0.573105 -0.243068,0.134166 -0.620296,0.397353 -0.838285,0.584861 l -0.396343,0.340924 0.483988,1.424835 c 0.266193,0.783659 0.497512,1.384265 0.514041,1.334679 0.01653,-0.04959 -0.167407,-0.667602 -0.408746,-1.37337 l -0.438798,-1.283213 0.448146,-0.402921 c 0.616841,-0.554594 0.891371,-0.67791 1.608269,-0.722417 0.552389,-0.03429 0.670661,-0.01104 1.103239,0.216905 0.756511,0.39864 0.970203,0.756903 1.582097,2.652454 2.302505,7.132787 4.610412,15.998901 5.057032,19.427228 0.244638,1.877876 -0.23079,5.026289 -1.107811,7.336233 -0.813139,2.141687 -2.397726,4.06445 -4.424848,5.369182 -1.326065,0.853504 -3.557944,1.852203 -5.347495,2.392843 -1.775388,0.536361 -2.521623,0.632788 -4.905554,0.633889 -1.899031,8.83e-4 -2.223202,-0.02091 -3.093592,-0.207893 C 63.914663,87.80116 61.726843,86.880108 53.916892,82.974666 48.38031,80.206044 43.996317,77.847581 43.09466,77.152615 42.241779,76.495242 41.758694,75.520554 41.695356,74.32933 c -0.07026,-1.321424 0.308978,-2.30323 1.228412,-3.180221 0.711802,-0.678944 1.334244,-0.949528 2.291435,-0.996113 0.68886,-0.03353 0.81814,-0.01195 1.458407,0.243422 0.3864,0.154116 1.915675,0.909847 3.398389,1.679404 3.511879,1.822731 4.870892,2.499679 4.919889,2.450682 0.03996,-0.03996 -7.511138,-3.952882 -8.303551,-4.302838 -0.599624,-0.264813 -1.475096,-0.320689 -2.182625,-0.139304 -1.298557,0.332902 -2.213292,1.18985 -2.744221,2.57086 -0.287921,0.748915 -0.295071,2.070516 -0.0153,2.828427 0.263868,0.714837 0.76346,1.420327 1.300239,1.83611 1.241239,0.961449 14.131869,7.575309 18.383475,9.4321 4.037247,1.763175 7.268567,2.392177 10.42918,2.030123 z M 56.17609,74.582578 c 0.139448,-0.08237 0.343354,-0.319068 0.453124,-0.525987 0.198938,-0.375004 0.199077,-0.378114 0.04286,-0.96439 -0.420931,-1.579703 -2.755412,-7.994055 -4.093444,-11.24738 -2.891069,-7.029415 -4.353712,-9.199527 -8.122401,-12.051142 -1.655143,-1.252381 -2.18896,-1.832971 -2.437428,-2.650998 -0.348917,-1.148732 -0.102543,-2.180213 0.696727,-2.916954 0.885408,-0.816141 1.861419,-0.839262 3.387158,-0.08024 1.413224,0.703051 2.996434,1.935912 4.457695,3.471253 1.823848,1.916307 3.276697,4.053027 5.635976,8.288887 1.275219,2.289536 1.478208,2.594074 1.824744,2.737614 0.673675,0.279046 1.612671,-0.356122 1.590616,-1.075943 -0.0047,-0.152312 -0.03815,-0.116108 -0.133577,0.144429 -0.161392,0.440639 -0.357512,0.660508 -0.729561,0.817909 -0.353172,0.149413 -0.772453,0.0447 -1.049849,-0.262186 -0.09759,-0.10797 -0.583186,-0.946243 -1.079095,-1.862829 -2.520084,-4.657864 -4.189276,-7.097374 -6.270425,-9.164175 -2.470359,-2.453327 -4.667939,-3.8 -6.195699,-3.796713 -0.770958,0.0017 -1.727258,0.63207 -2.114019,1.393601 -0.449565,0.885193 -0.422206,1.883137 0.07971,2.907547 0.312219,0.637235 0.819492,1.129707 2.120295,2.058426 2.85023,2.034946 4.331922,3.786612 6.001463,7.09497 1.582956,3.136782 3.809098,8.736652 5.802941,14.597327 0.678735,1.995063 0.686324,2.027175 0.56214,2.378479 -0.147741,0.417942 -0.467955,0.681793 -0.937752,0.772692 l -0.337181,0.06524 0.295722,0.01016 c 0.162646,0.0056 0.409815,-0.05723 0.549262,-0.139605 z m 2.77242,-19.305091 c -0.569061,-1.752939 -0.58414,-1.823209 -0.548048,-2.553838 0.02979,-0.603038 0.08628,-0.847166 0.286253,-1.237091 0.328111,-0.639771 1.124244,-1.395015 1.869049,-1.773059 0.5281,-0.26805 0.679479,-0.304194 1.26727,-0.302584 0.803061,0.0022 1.298128,0.199547 1.905845,0.75972 0.528828,0.487457 0.624133,0.683119 1.475195,3.028574 0.808188,2.227298 0.946038,2.528938 1.273418,2.786454 0.326513,0.256836 0.984528,0.253591 1.315162,-0.0065 0.265949,-0.209195 0.487345,-0.655623 0.487345,-0.982691 0,-0.114243 -0.182346,-0.781747 -0.405214,-1.483344 -0.377561,-1.188578 -0.402697,-1.326899 -0.368342,-2.02693 0.04121,-0.839759 0.229021,-1.336052 0.724748,-1.915197 0.639496,-0.747108 1.798687,-1.083581 2.857767,-0.829512 0.57337,0.137549 1.395663,0.792129 1.671388,1.330495 0.112038,0.218762 0.57859,1.439836 1.036782,2.713499 0.458191,1.273664 0.878949,2.387357 0.935015,2.474874 0.09763,0.1524 0.0998,0.152311 0.05134,-0.0021 -0.276447,-0.880757 -1.703407,-4.866983 -1.835964,-5.128783 -0.269522,-0.532308 -0.839595,-1.091801 -1.384646,-1.358949 -0.425574,-0.208589 -0.608736,-0.244432 -1.249944,-0.244599 -0.655531,-1.68e-4 -0.816543,0.0328 -1.263112,0.258688 -1.020198,0.516036 -1.654993,1.511732 -1.724023,2.704184 -0.03611,0.62372 -0.0076,0.76109 0.420387,2.028535 0.524659,1.55359 0.529842,1.791201 0.04955,2.271495 -0.333939,0.333939 -0.752798,0.389695 -1.198003,0.15947 -0.347404,-0.179649 -0.422336,-0.342744 -1.249761,-2.720192 -0.836889,-2.404645 -0.933395,-2.611891 -1.450088,-3.114059 -0.641435,-0.6234 -1.084964,-0.793375 -2.070229,-0.793375 -0.757413,0 -0.891124,0.02598 -1.364614,0.265165 -1.029769,0.520187 -1.840487,1.460019 -2.130893,2.470258 -0.237532,0.826309 -0.14225,1.42377 0.540378,3.388417 0.325717,0.937433 0.607724,1.688912 0.626681,1.669954 0.01896,-0.01896 -0.228853,-0.845611 -0.550691,-1.837005 z m 17.383126,0.756434 c 0.380791,-0.196914 0.61219,-0.623035 0.597645,-1.100563 l -0.01211,-0.397747 -0.0572,0.441941 c -0.07196,0.555952 -0.207472,0.80206 -0.534857,0.971357 -0.471962,0.244061 -1.065723,0.101704 -1.366424,-0.327606 -0.07587,-0.108321 -0.137948,-0.152444 -0.137948,-0.09805 0,0.05439 0.140596,0.222344 0.312436,0.373221 0.356692,0.31318 0.767522,0.360296 1.198464,0.137447 z"
     id="path43595"
     transform="scale(8)" />
  <path
     style="opacity:1;fill:#818080;fill-opacity:1;fill-rule:nonzero;stroke:none;stroke-width:0;stroke-miterlimit:4;stroke-dasharray:none;stroke-dashoffset:175;stroke-opacity:1;paint-order:markers fill stroke"
     d="m 68.324193,91.074719 c -2.413579,-0.253774 -5.03862,-1.033631 -8.175922,-2.428937 -2.777538,-1.235301 -10.957712,-5.359855 -15.908504,-8.021281 -2.051208,-1.10268 -2.20385,-1.202573 -2.925721,-1.914677 -0.844034,-0.832614 -1.290893,-1.543644 -1.657221,-2.636921 -0.20313,-0.606227 -0.227248,-0.817368 -0.22885,-2.003468 -0.0017,-1.2238 0.01711,-1.380238 0.243892,-2.032932 0.613764,-1.766486 1.815896,-3.110081 3.431035,-3.834785 0.797413,-0.357795 1.416383,-0.486658 2.328709,-0.484813 1.396309,0.0028 1.370979,-0.0076 7.043113,2.902807 0.567988,0.291441 1.055665,0.506932 1.083728,0.47887 0.106069,-0.10607 -2.42154,-6.847607 -3.658225,-9.757069 -0.35128,-0.826431 -0.950528,-2.138998 -1.331663,-2.916815 -1.65006,-3.367435 -2.684039,-4.633894 -5.515818,-6.755998 -0.845207,-0.633388 -1.756223,-1.394152 -2.02448,-1.690586 -1.537697,-1.699211 -1.902336,-4.131923 -0.923188,-6.159122 0.351395,-0.72752 1.407419,-1.840427 2.056164,-2.16692 2.545986,-1.281318 5.607412,-0.08275 9.534156,3.73267 1.283865,1.247469 2.239531,2.42382 3.520692,4.333704 0.538071,0.802124 0.985528,1.467622 0.99435,1.478884 0.0088,0.01126 0.211664,-0.365838 0.45076,-0.838003 1.024681,-2.023533 3.093307,-3.38092 5.152442,-3.38092 1.488488,0 2.51963,0.441441 3.712867,1.589511 0.162749,0.156589 0.323951,0.250812 0.358226,0.209384 0.03428,-0.04143 0.234581,-0.304657 0.445125,-0.584955 0.408518,-0.543864 1.166359,-1.163866 1.793999,-1.467701 0.524419,-0.253868 1.688047,-0.542065 2.181113,-0.540199 1.701716,0.0064 3.449606,1.020001 4.379592,2.53963 0.185941,0.303835 0.370855,0.552427 0.410919,0.552427 0.04006,0 0.319907,-0.159686 0.621876,-0.354858 0.748369,-0.483694 1.509373,-0.70633 2.405154,-0.703642 1.337744,0.004 2.286593,0.381893 3.17281,1.263565 0.691858,0.688311 0.912332,1.0992 1.478876,2.756137 1.956301,5.721473 4.144906,13.531565 4.854644,17.323924 0.446405,2.385292 0.488876,2.773159 0.488753,4.463611 -8.9e-5,1.390181 -0.03668,1.843581 -0.244118,3.026043 -0.57234,3.262478 -1.434492,5.454077 -2.924271,7.433529 -3.205345,4.258906 -10.666524,7.216405 -16.625014,6.589906 z m 3.447145,-2.290575 c 1.256866,-0.140444 2.557264,-0.426443 3.800699,-0.835894 2.844211,-0.936571 5.088226,-2.207209 6.715493,-3.802543 2.049593,-2.009371 3.103631,-4.552976 3.626076,-8.750446 0.129865,-1.043381 0.130598,-1.254716 0.008,-2.298097 -0.183552,-1.561748 -0.557152,-3.391379 -1.335579,-6.540738 -1.161971,-4.701096 -3.85945,-13.891185 -4.366889,-14.87763 -0.464976,-0.903899 -1.709755,-1.431229 -2.678268,-1.134603 -0.3829,0.11727 -1.487181,0.82319 -1.617448,1.033966 -0.05917,0.09574 0.832822,2.863398 0.900907,2.795314 0.02236,-0.02236 -0.157219,-0.623344 -0.399055,-1.335528 l -0.439703,-1.294879 0.367773,-0.348721 c 1.02883,-0.975533 2.311159,-1.063714 3.302197,-0.227078 0.40788,0.344333 0.636125,0.892093 1.442737,3.462405 2.131011,6.790571 4.13643,14.541444 4.632464,17.904311 0.226621,1.536371 0.169238,2.752348 -0.224705,4.761627 -1.013795,5.170792 -3.435788,7.967303 -8.718332,10.06647 -1.269695,0.504549 -2.421241,0.85555 -3.561959,1.085715 -0.892939,0.18017 -1.268026,0.204366 -3.17795,0.204999 -1.939356,6.19e-4 -2.267055,-0.02096 -3.137786,-0.206855 -2.988464,-0.638017 -5.150105,-1.548616 -13.012759,-5.481668 -5.51812,-2.760271 -9.528268,-4.907279 -10.67976,-5.717879 -0.948248,-0.667526 -1.456001,-1.640016 -1.522771,-2.91654 -0.06806,-1.301223 0.320465,-2.321869 1.218943,-3.202113 0.921331,-0.902634 2.38185,-1.23793 3.558359,-0.816903 0.302834,0.108372 2.283368,1.087885 4.401187,2.176694 2.117819,1.088809 3.887796,1.979174 3.933282,1.978588 0.138667,-0.0018 -0.530005,-0.359665 -4.36326,-2.335267 -4.170481,-2.149402 -4.473583,-2.265085 -5.534364,-2.112263 -1.67578,0.24142 -2.917969,1.465875 -3.292009,3.24501 -0.314834,1.497526 0.273284,3.168262 1.419617,4.03287 1.537039,1.159292 15.404094,8.227438 19.256248,9.815059 2.021963,0.833329 4.328292,1.4775 5.94311,1.659945 0.990931,0.111957 2.595537,0.117708 3.535533,0.01267 z M 56.327443,74.448586 c 0.238535,-0.219735 0.464372,-0.677491 0.458202,-0.928739 -0.0021,-0.08664 -0.07173,0.03812 -0.15468,0.277231 -0.163341,0.470871 -0.441358,0.730996 -0.912966,0.85421 l -0.298505,0.07799 0.344131,-0.03916 c 0.191297,-0.02177 0.441697,-0.129036 0.563818,-0.241532 z m 0.345673,-1.323801 c -0.02822,-0.07051 -0.04916,-0.04957 -0.0534,0.0534 -0.0038,0.09318 0.01705,0.14538 0.04642,0.116009 0.02937,-0.02937 0.03251,-0.105606 0.007,-0.169411 z M 55.856434,70.614222 C 54.609917,67.01117 53.230068,63.385278 51.98205,60.43333 c -1.275306,-3.016493 -2.325865,-5.04699 -3.394407,-6.560632 -0.805767,-1.14141 -2.536419,-2.855893 -4.08411,-4.045953 -0.704897,-0.542014 -1.36118,-1.056594 -1.458408,-1.143511 -0.483136,-0.431904 -0.856049,-0.985295 -1.018597,-1.511567 -0.335159,-1.085118 -0.170277,-2.005392 0.491092,-2.740994 0.909834,-1.011955 1.956752,-1.095234 3.585062,-0.285183 1.845932,0.918314 4.014445,2.781961 5.787898,4.974189 1.135351,1.40345 2.708844,3.892922 4.52985,7.166819 0.567598,1.020457 1.134571,1.96565 1.259941,2.100431 0.316188,0.339924 0.779817,0.41457 1.206708,0.194286 0.370861,-0.191372 0.731893,-0.658431 0.728921,-0.942986 -0.0014,-0.129903 -0.05079,-0.07943 -0.164294,0.16775 -0.384252,0.836783 -1.213089,1.054752 -1.754776,0.461474 -0.09858,-0.10797 -0.55698,-0.892367 -1.018664,-1.743105 -1.584994,-2.920639 -3.289608,-5.686833 -4.383411,-7.113263 -1.621746,-2.11492 -4.204828,-4.407776 -5.979361,-5.307543 -1.825092,-0.925402 -2.892355,-0.866722 -3.862552,0.212371 -0.939351,1.044785 -0.953978,2.630613 -0.03577,3.877913 0.293275,0.398387 0.769083,0.812914 1.923037,1.675365 2.352536,1.758256 3.296106,2.71788 4.5449,4.622225 1.766253,2.693445 4.567872,9.339362 7.133905,16.922835 0.295433,0.873101 0.551089,1.545642 0.568125,1.494534 0.01704,-0.05111 -0.311783,-1.083661 -0.730707,-2.294563 z m 3.077969,-15.288891 c -0.483463,-1.437038 -0.5037,-1.533899 -0.506642,-2.424905 -0.0028,-0.850778 0.01791,-0.968567 0.248764,-1.414213 0.328156,-0.633482 1.181429,-1.43563 1.907197,-1.792924 0.496773,-0.24456 0.670024,-0.283948 1.242068,-0.282374 0.800073,0.0022 1.296098,0.200216 1.903089,0.75972 0.520798,0.480055 0.637582,0.714066 1.382496,2.770221 0.728897,2.011941 0.796398,2.184482 0.838251,2.142629 0.07069,-0.07069 -1.401562,-4.104366 -1.616723,-4.429496 -0.311444,-0.470624 -0.694602,-0.813959 -1.223623,-1.09645 -0.389882,-0.208193 -0.540853,-0.235977 -1.281631,-0.23587 -0.771837,1.15e-4 -0.883294,0.02287 -1.379315,0.281647 -1.578422,0.823474 -2.460927,2.411267 -2.167602,3.899926 0.101947,0.517389 1.07299,3.403176 1.126976,3.349191 0.01665,-0.01665 -0.196336,-0.703847 -0.473305,-1.527102 z m 8.725006,0.731998 c 0.249836,-0.126412 0.616967,-0.721618 0.619136,-1.003766 7.95e-4,-0.104035 -0.180316,-0.780206 -0.402478,-1.502602 -0.372097,-1.209928 -0.401356,-1.373224 -0.371241,-2.071894 0.05205,-1.207681 0.55691,-2.025366 1.588782,-2.573256 0.317758,-0.168719 0.516491,-0.201757 1.219323,-0.202702 0.954516,-0.0013 1.242601,0.101276 1.893264,0.674012 0.489388,0.430776 0.643505,0.758283 1.55401,3.302334 0.674964,1.885924 0.874246,2.391915 0.881067,2.237093 0.006,-0.136645 -1.51918,-4.392199 -1.727252,-4.819309 -0.256227,-0.525961 -0.824586,-1.065058 -1.432918,-1.359146 -0.627293,-0.303254 -1.657264,-0.294393 -2.327827,0.02003 -1.085513,0.508985 -1.728979,1.447406 -1.816422,2.649038 -0.04441,0.610205 -0.01762,0.745954 0.403598,2.04558 0.494289,1.525076 0.512103,1.63671 0.320343,2.007534 -0.314078,0.607359 -0.951056,0.789006 -1.548562,0.441606 l -0.309359,-0.179867 0.247996,0.224392 c 0.279525,0.252918 0.828353,0.303292 1.20854,0.110925 z m 8.672227,-0.02341 c 0.333701,-0.172563 0.612729,-0.622774 0.599926,-0.96798 -0.0097,-0.260433 -0.01094,-0.259645 -0.07169,0.04419 -0.08968,0.448482 -0.241981,0.687371 -0.534761,0.838774 -0.377098,0.195004 -0.727301,0.164077 -1.116387,-0.09859 -0.308609,-0.208341 -0.3257,-0.211795 -0.167014,-0.03376 0.327858,0.367832 0.834024,0.453126 1.289929,0.217368 z M 66.142425,55.41912 c -0.05547,-0.121739 -0.117499,-0.204695 -0.137848,-0.184346 -0.04128,0.04128 0.137927,0.405691 0.19951,0.405691 0.02155,0 -0.0062,-0.0996 -0.06166,-0.221345 z"
     id="path43634"
     transform="scale(8)" />
  <path
     style="opacity:1;fill:#818080;fill-opacity:1;fill-rule:nonzero;stroke:none;stroke-width:0;stroke-miterlimit:4;stroke-dasharray:none;stroke-dashoffset:175;stroke-opacity:1;paint-order:markers fill stroke"
     d="M 68.014834,91.038337 C 66.284466,90.823792 64.759562,90.438693 62.733885,89.70469 60.90471,89.041889 59.072604,88.190154 53.695921,85.502992 46.662667,81.987907 42.530153,79.787372 41.716009,79.123773 40.776715,78.358165 40.08284,77.334419 39.668161,76.102367 c -0.215855,-0.641328 -0.23818,-0.830442 -0.239986,-2.032932 -0.0018,-1.224083 0.01686,-1.380087 0.243692,-2.032932 0.35718,-1.028006 0.876335,-1.851283 1.654015,-2.62294 0.553084,-0.548799 0.841703,-0.754015 1.510827,-1.074234 1.055844,-0.505288 1.588445,-0.628378 2.68329,-0.620136 1.230638,0.0093 1.745256,0.203297 4.984748,1.879457 1.487771,0.769795 2.793857,1.426877 2.902414,1.460182 0.190882,0.05856 0.18555,0.0262 -0.16202,-0.983488 -1.206583,-3.505117 -3.099621,-8.276849 -4.330858,-10.916686 -1.738879,-3.728246 -2.939455,-5.280719 -5.648187,-7.303702 -2.337098,-1.745434 -3.128263,-2.709611 -3.538009,-4.311702 -0.69253,-2.707769 0.809913,-5.509852 3.355178,-6.257465 2.288536,-0.672205 5.573505,0.970488 9.025181,4.513164 1.202854,1.234566 1.85499,2.057451 3.154778,3.9808 l 0.959963,1.420495 0.433174,-0.851387 c 1.022492,-2.009672 3.104685,-3.370454 5.157281,-3.370454 1.347333,0 2.368577,0.391564 3.451006,1.323183 l 0.612399,0.527075 0.154479,-0.240119 c 0.861083,-1.338441 2.369434,-2.240067 3.974428,-2.375739 0.810116,-0.06848 1.763572,0.135698 2.609192,0.558744 0.749258,0.374839 1.711896,1.287043 2.118505,2.007514 0.154406,0.273591 0.315373,0.497439 0.357706,0.497439 0.04233,0 0.324033,-0.159686 0.626002,-0.354858 1.352023,-0.873854 3.216845,-0.952499 4.615804,-0.19466 0.574533,0.311233 1.449948,1.183989 1.75257,1.747245 0.668155,1.243609 3.42363,10.191516 4.653043,15.109923 1.288927,5.156493 1.620751,7.809746 1.295529,10.359007 -0.558077,4.374491 -1.765809,7.261512 -4.018488,9.605981 -1.85124,1.926673 -4.467643,3.476535 -7.622837,4.515492 -2.987855,0.983854 -5.727919,1.302303 -8.378146,0.973703 z m 4.861359,-2.418221 c 3.302407,-0.578913 6.802367,-2.156631 8.921852,-4.021807 2.322224,-2.043587 3.501932,-4.615602 4.079273,-8.893689 0.275867,-2.044168 -0.0885,-4.485506 -1.477486,-9.899495 -1.240275,-4.834336 -3.733726,-13.252848 -4.190519,-14.148238 -0.518398,-1.016143 -2.007693,-1.478429 -3.046285,-0.945585 -0.482147,0.247363 -1.107697,0.716598 -1.219732,0.914941 -0.120676,0.213639 0.0033,0.140458 0.481242,-0.283991 0.616783,-0.547791 1.055192,-0.735592 1.722765,-0.737982 0.683356,-0.0024 1.36133,0.326505 1.76575,0.856734 0.752849,0.987051 4.370466,13.615103 5.463902,19.072898 0.566658,2.828424 0.613976,4.089043 0.233896,6.231378 -0.597286,3.366623 -1.574402,5.454487 -3.413281,7.293365 -2.174569,2.17457 -6.415242,4.097349 -10.026166,4.546002 -1.080889,0.134299 -3.522273,0.114352 -4.526223,-0.03698 -3.08503,-0.465032 -5.357305,-1.396553 -14.037648,-5.754745 -7.048364,-3.538814 -10.126571,-5.228466 -10.865271,-5.964033 -1.839746,-1.831941 -1.225662,-5.270628 1.141023,-6.389393 0.464387,-0.219523 0.715691,-0.277491 1.325826,-0.305829 1.018085,-0.04729 1.195221,0.02556 5.679062,2.335433 2.036712,1.049223 3.720663,1.890128 3.742113,1.868678 0.03774,-0.03774 -4.234074,-2.27128 -6.85353,-3.583413 -1.525005,-0.763903 -2.082159,-0.902142 -2.973805,-0.73785 -1.246865,0.229744 -2.257902,1.005348 -2.811866,2.157088 -0.599872,1.247186 -0.607733,2.500122 -0.02335,3.72229 0.568102,1.188123 0.906273,1.428057 5.364227,3.805947 2.72829,1.45528 10.763409,5.486081 12.904699,6.473615 3.339891,1.540313 5.781295,2.318204 8.131728,2.590963 1.043133,0.121052 3.355171,0.03576 4.507806,-0.1663 z M 56.354262,74.401524 c 0.146028,-0.165215 0.157974,-0.19731 0.0375,-0.100761 -0.09723,0.07792 -0.256326,0.185807 -0.353553,0.239748 -0.133802,0.07423 -0.14292,0.09873 -0.0375,0.100761 0.0766,0.0015 0.235699,-0.106408 0.353554,-0.239748 z m 0.397237,-0.685642 c 0.08111,-0.342043 0.0058,-0.265214 -0.128042,0.130565 -0.05715,0.169038 -0.06587,0.268475 -0.01938,0.220971 0.0465,-0.0475 0.112833,-0.205695 0.147419,-0.351536 z m -1.110422,-3.700878 c -3.26621,-9.27023 -5.855161,-14.956516 -7.731856,-16.981995 l -0.409479,-0.441942 0.418132,0.53033 c 0.666773,0.845691 1.486789,2.141686 2.103361,3.324258 1.519776,2.9149 3.731156,8.395829 5.803543,14.384143 0.308677,0.891947 0.573651,1.584466 0.588829,1.538931 0.01518,-0.04554 -0.33246,-1.104711 -0.77253,-2.353725 z m 3.245834,-11.454526 c 0.365028,-0.165703 0.73158,-0.611591 0.729245,-0.887081 -6.19e-4,-0.07292 -0.08996,0.02278 -0.198543,0.212661 -0.391084,0.683919 -1.037302,0.903569 -1.54442,0.52495 -0.262238,-0.195789 -0.362133,-0.358935 -1.615227,-2.637961 -2.304045,-4.19041 -3.974012,-6.604459 -5.869865,-8.485281 -2.501955,-2.482121 -4.604981,-3.779048 -6.149733,-3.792515 -0.482028,-0.0042 -0.744054,0.03815 -0.960283,0.155195 -0.536927,0.290652 -1.039924,0.83396 -1.291897,1.395431 -0.219349,0.488773 -0.239423,0.616561 -0.204772,1.303505 0.06805,1.349098 0.520697,1.993966 2.343043,3.338053 0.573093,0.422689 1.260748,0.948495 1.528123,1.168456 0.267374,0.219962 0.386699,0.289307 0.265165,0.154099 -0.121534,-0.135206 -0.76871,-0.664867 -1.438169,-1.177021 -0.669459,-0.512155 -1.418943,-1.128735 -1.66552,-1.370177 -1.122088,-1.09872 -1.278732,-2.919947 -0.342614,-3.983433 0.435087,-0.494284 0.807474,-0.733592 1.321137,-0.849005 1.329121,-0.298633 3.723962,1.015965 6.179476,3.392095 2.090332,2.022755 3.659609,4.276215 6.463103,9.280929 1.382593,2.468163 1.582133,2.65186 2.451751,2.2571 z m 0.0012,-3.366236 c -0.434964,-1.295742 -0.458589,-1.413303 -0.460955,-2.293816 -0.0022,-0.80725 0.02559,-0.985615 0.21318,-1.370019 0.313432,-0.642259 1.165695,-1.456387 1.903788,-1.818601 0.53823,-0.264133 0.701597,-0.302486 1.281631,-0.300891 0.800228,0.0022 1.2961,0.200218 1.903549,0.760144 0.52175,0.480933 0.671157,0.78362 1.456297,2.950338 0.584528,1.613098 0.786203,2.11742 0.793578,1.984481 0.0058,-0.105138 -1.255628,-3.60511 -1.463885,-4.061607 -0.273149,-0.598741 -0.821335,-1.177403 -1.406049,-1.484217 -0.379624,-0.199198 -0.554333,-0.232423 -1.238997,-0.235627 -0.729395,-0.0034 -0.84815,0.02141 -1.398975,0.292449 -0.799917,0.393602 -1.533618,1.121735 -1.91581,1.90127 -0.262604,0.535619 -0.29756,0.690488 -0.299254,1.325826 -0.0017,0.645155 0.05113,0.87723 0.5123,2.249609 0.282821,0.841633 0.528585,1.515877 0.546141,1.49832 0.01756,-0.01756 -0.174385,-0.646504 -0.426539,-1.397659 z m 8.820122,0.812484 c 0.147377,-0.08987 0.342786,-0.329346 0.434242,-0.532158 0.191514,-0.424703 0.183049,-0.478267 -0.343941,-2.176394 -0.295383,-0.95182 -0.325666,-1.138489 -0.295106,-1.819107 0.0418,-0.930923 0.325656,-1.582126 0.916257,-2.101993 0.581589,-0.511935 0.956572,-0.663859 1.735811,-0.70326 1.069254,-0.05407 1.849435,0.310403 2.455566,1.147143 0.135042,0.18642 0.625508,1.394788 1.1063,2.72561 0.475039,1.314896 0.879219,2.375209 0.898177,2.356251 0.07579,-0.07579 -1.664195,-4.796171 -1.885784,-5.115923 -0.553601,-0.798848 -1.423302,-1.247902 -2.416861,-1.247902 -1.695233,0 -2.997182,1.382817 -3.003824,3.190402 -7.95e-4,0.212819 0.190262,0.969755 0.440562,1.745555 0.484823,1.502702 0.502469,1.615305 0.311125,1.985323 -0.315735,0.610563 -0.960135,0.791596 -1.54614,0.434361 -0.242717,-0.147963 -0.280345,-0.155072 -0.179845,-0.03398 0.279172,0.336381 0.945225,0.407217 1.373459,0.146068 z m 8.070251,0.08067 c -0.178116,-0.03469 -0.426708,-0.13047 -0.552427,-0.212844 -0.125721,-0.08237 -0.228581,-0.128382 -0.228581,-0.10224 0,0.118938 0.601409,0.396828 0.839689,0.387991 0.250282,-0.0093 0.246988,-0.01337 -0.05868,-0.07291 z m 0.588387,-0.09236 c 0.03097,-0.0501 -0.0045,-0.06492 -0.08317,-0.03474 -0.153126,0.05876 -0.181142,0.122114 -0.054,0.122114 0.04574,0 0.107473,-0.03932 0.137173,-0.08738 z M 76.8366,55.417155 c -0.02721,-0.02721 -0.07664,0.02184 -0.10983,0.109012 -0.04797,0.125971 -0.03781,0.136124 0.04948,0.04948 0.06041,-0.05996 0.08756,-0.131278 0.06035,-0.158492 z m -10.735807,-0.08986 c -0.02879,-0.07502 -0.0713,-0.117439 -0.09446,-0.09427 -0.02317,0.02317 -0.01591,0.08455 0.01614,0.136394 0.08715,0.141021 0.138096,0.113625 0.07833,-0.04212 z m 10.813256,-0.233732 c -0.02822,-0.07051 -0.04916,-0.04957 -0.0534,0.0534 -0.0038,0.09318 0.01705,0.14538 0.04642,0.116009 0.02937,-0.02937 0.03251,-0.105606 0.007,-0.169411 z M 76.429401,53.08128 c -0.224864,-0.678348 -0.424395,-1.217808 -0.443402,-1.198801 -0.03084,0.03084 0.659436,2.201911 0.752207,2.365869 0.135614,0.239678 0.04898,-0.08772 -0.308805,-1.167068 z M 46.890019,51.88396 c -0.362169,-0.364602 -0.678376,-0.662912 -0.702683,-0.662912 -0.02431,0 0.252126,0.29831 0.614294,0.662912 0.362169,0.364602 0.678376,0.662913 0.702683,0.662913 0.02431,0 -0.252126,-0.298311 -0.614294,-0.662913 z"
     id="path43673"
     transform="scale(8)" />
  <path
     style="opacity:1;fill:#818080;fill-opacity:1;fill-rule:nonzero;stroke:none;stroke-width:0;stroke-miterlimit:4;stroke-dasharray:none;stroke-dashoffset:175;stroke-opacity:1;paint-order:markers fill stroke"
     d="m 68.589358,91.112379 c -2.226473,-0.19198 -4.934186,-0.951899 -7.878077,-2.210979 -1.540365,-0.658804 -9.60063,-4.640672 -13.025767,-6.434888 -3.433538,-1.798616 -5.48856,-2.949095 -5.969505,-3.341955 -0.935822,-0.764426 -1.618804,-1.771033 -2.050552,-3.02219 -0.225241,-0.652723 -0.243688,-0.809076 -0.239849,-2.032932 0.0037,-1.186945 0.02827,-1.397839 0.234344,-2.013314 0.332685,-0.993618 0.881559,-1.864262 1.66593,-2.642558 0.553084,-0.548799 0.841703,-0.754015 1.510827,-1.074234 0.454924,-0.21771 1.045896,-0.448607 1.313271,-0.513104 0.75276,-0.181583 2.049799,-0.143032 2.792759,0.08301 0.344984,0.104958 1.971854,0.873097 3.615266,1.706975 2.921962,1.482623 2.986877,1.510417 2.936234,1.257204 -0.06814,-0.3407 -1.032373,-3.003115 -2.027622,-5.598617 -1.6892,-4.405252 -3.316672,-7.910037 -4.49718,-9.684742 -0.838219,-1.260128 -2.213154,-2.635992 -3.835923,-3.838513 -1.584206,-1.173945 -2.467037,-2.053531 -2.901084,-2.890419 -1.128142,-2.175177 -0.836913,-4.587123 0.756733,-6.267222 1.240713,-1.308021 2.741049,-1.728309 4.538794,-1.271449 1.921636,0.488344 4.342052,2.148227 6.713477,4.603995 1.061405,1.099154 1.883572,2.148084 3.058832,3.902486 0.480347,0.717051 0.890736,1.303728 0.911976,1.303728 0.02124,0 0.220703,-0.352548 0.443251,-0.783441 0.819274,-1.586267 2.308993,-2.80642 3.964655,-3.247247 0.602268,-0.160357 1.840088,-0.156323 2.471173,0.0081 0.745642,0.194216 1.483979,0.598262 2.166189,1.185422 l 0.60526,0.520932 0.425243,-0.57454 c 0.996629,-1.346535 2.730743,-2.14811 4.385784,-2.027283 1.60739,0.117349 3.102302,1.044909 4.01778,2.492943 0.182489,0.288646 0.342821,0.53834 0.356295,0.554874 0.01347,0.01654 0.304687,-0.136392 0.647137,-0.339839 0.852381,-0.50639 1.541012,-0.70669 2.429595,-0.70669 1.355132,0 2.29582,0.383921 3.226592,1.316862 0.726245,0.727936 0.927041,1.16986 1.951873,4.295798 3.060537,9.335232 4.864308,16.82492 4.864308,20.19777 0,2.494601 -0.781182,6.031924 -1.801623,8.15805 -1.08973,2.27049 -2.936911,4.276215 -5.272902,5.725474 -2.598546,1.612151 -6.270856,2.868898 -9.264587,3.170551 -0.85534,0.08619 -2.430218,0.101759 -3.238907,0.03203 z m 2.96101,-2.332543 c 3.870758,-0.358125 8.130164,-2.17278 10.551553,-4.495327 1.774839,-1.702389 2.740734,-3.512329 3.357858,-6.292118 0.510176,-2.298044 0.610266,-3.835215 0.36117,-5.546796 -0.427211,-2.935436 -1.732168,-8.147773 -3.720485,-14.860586 -1.28912,-4.352235 -1.771034,-5.782371 -2.088942,-6.199177 -0.405997,-0.532298 -1.005074,-0.818209 -1.798344,-0.858268 -0.578388,-0.02921 -0.685465,-0.0064 -1.162728,0.248011 -0.28912,0.154099 -0.680377,0.444897 -0.86946,0.646217 l -0.343788,0.366036 0.397748,-0.327982 c 0.742711,-0.612437 1.140207,-0.804381 1.745618,-0.842931 1.116237,-0.07108 1.878371,0.444392 2.309334,1.561918 0.804935,2.087265 2.916629,9.340106 4.108889,14.112428 1.537948,6.156015 1.718249,7.810671 1.170205,10.739184 -0.593958,3.17386 -1.601292,5.272095 -3.379351,7.039053 -1.605345,1.595319 -4.337599,3.079242 -7.324714,3.978146 -1.514308,0.455697 -2.297817,0.570273 -4.265713,0.623793 -2.093843,0.05695 -2.877004,-0.0158 -4.528928,-0.420696 -2.473092,-0.606163 -4.535376,-1.48889 -11.048543,-4.729146 -6.656259,-3.311443 -10.552599,-5.381979 -11.811245,-6.276558 -1.664083,-1.182744 -2.042738,-3.678217 -0.833005,-5.489806 0.677081,-1.013937 1.613868,-1.543309 2.833143,-1.60099 1.016484,-0.04809 1.217472,0.03402 5.600676,2.288017 1.986566,1.021561 3.626054,1.843268 3.643307,1.826017 0.01725,-0.01725 -1.210373,-0.674249 -2.728056,-1.459993 -5.528942,-2.862476 -5.759667,-2.956414 -6.826948,-2.77956 -1.418208,0.235005 -2.615792,1.232786 -3.088818,2.573485 -0.568856,1.61231 -0.176904,3.358658 0.996748,4.441024 0.805755,0.743085 3.650528,2.29267 10.844178,5.906966 6.454348,3.242849 8.461246,4.166499 10.544886,4.853152 2.849295,0.93897 4.865522,1.206699 7.353755,0.976487 z M 56.397726,74.369152 c 0.033,-0.0534 -0.04433,-0.02872 -0.171854,0.05483 -0.127519,0.08355 -0.231854,0.168629 -0.231854,0.189055 0,0.06394 0.340646,-0.141855 0.403708,-0.243889 z M 56.781947,73.5833 c -0.0032,-0.08742 -0.03073,-0.07237 -0.08082,0.04419 -0.104415,0.242987 -0.104415,0.382542 0,0.220971 0.04713,-0.07292 0.08349,-0.192245 0.08082,-0.265165 z m -1.00083,-3.146131 c -2.756707,-8.029377 -5.563498,-14.42696 -7.345543,-16.742861 -0.576957,-0.749797 -0.568198,-0.655505 0.01452,0.156293 0.976148,1.359898 1.798693,2.896121 2.988189,5.580878 1.193488,2.693765 2.962888,7.265247 4.203881,10.861291 0.25621,0.742423 0.480406,1.335288 0.498213,1.317481 0.01781,-0.01781 -0.143858,-0.545695 -0.359257,-1.173082 z m 2.510998,-11.806676 c -0.170147,-0.04819 -0.408511,-0.173871 -0.529698,-0.27929 l -0.220338,-0.19167 0.176144,0.209306 c 0.196456,0.233442 0.441077,0.3552 0.706475,0.351644 0.09723,-0.0013 0.03757,-0.0418 -0.132583,-0.08999 z m 0.668116,-0.122283 c 0.161778,-0.12961 0.158958,-0.13145 -0.0494,-0.03222 -0.27056,0.128853 -0.320703,0.16968 -0.208402,0.16968 0.04742,0 0.163434,-0.06186 0.257799,-0.137459 z m 0.483806,-0.441715 c 0.106737,-0.172704 0.174574,-0.333501 0.150749,-0.357327 -0.03865,-0.03865 -0.418787,0.535202 -0.418787,0.632194 0,0.104543 0.09161,0.0106 0.268038,-0.274867 z m -2.267939,-0.636166 c -0.816308,-1.479541 -1.024539,-1.839823 -1.111109,-1.922447 -0.121546,-0.116005 0.0075,0.13362 0.742582,1.436311 0.336032,0.595517 0.630483,1.082757 0.654335,1.082757 0.02385,0 -0.104763,-0.268479 -0.285808,-0.596621 z m 1.667165,-2.368581 c -0.388356,-1.154685 -0.414899,-1.292364 -0.416672,-2.161322 -0.0023,-1.140613 0.164281,-1.546123 0.965082,-2.348931 0.624654,-0.62622 1.437031,-1.060475 2.215005,-1.184028 l 0.530331,-0.08422 -0.574525,0.04079 c -0.766745,0.05443 -1.519996,0.429452 -2.192447,1.091542 -0.867462,0.854099 -1.250146,1.89986 -1.080565,2.952863 0.08446,0.52447 0.87475,3.020375 0.936727,2.958398 0.01751,-0.01751 -0.154809,-0.586801 -0.382936,-1.265086 z m 8.243493,1.026851 c -0.194454,-0.03304 -0.443047,-0.109008 -0.552427,-0.168823 -0.109381,-0.05982 -0.198874,-0.08874 -0.198874,-0.06427 0,0.112067 0.516938,0.307465 0.795495,0.30069 l 0.309359,-0.0075 -0.353553,-0.06007 z m 8.816738,0.02366 c -0.06077,-0.02452 -0.160204,-0.02452 -0.220971,0 -0.06077,0.02452 -0.01105,0.04458 0.110485,0.04458 0.121534,0 0.171253,-0.02006 0.110486,-0.04458 z m -8.139456,-0.140336 c 0.173935,-0.14074 0.427673,-0.519875 0.427242,-0.638385 -1.77e-4,-0.04995 -0.07632,0.03381 -0.169204,0.186128 -0.09288,0.152319 -0.260681,0.341249 -0.37289,0.419844 -0.112209,0.07859 -0.162993,0.142899 -0.112855,0.142899 0.05014,0 0.152607,-0.04972 0.227707,-0.110486 z m 7.75644,0.08373 c -0.02026,-0.01471 -0.156153,-0.09662 -0.301994,-0.182022 l -0.265165,-0.155271 0.208665,0.182022 c 0.114767,0.100112 0.250664,0.182023 0.301994,0.182023 0.05133,0 0.07676,-0.01204 0.0565,-0.02675 z m 0.846429,-0.06063 c 0.03097,-0.0501 -0.0045,-0.06492 -0.08317,-0.03474 -0.153126,0.05876 -0.181142,0.122114 -0.054,0.122114 0.04575,0 0.107473,-0.03932 0.137174,-0.08738 z M 55.936131,55.238905 c -0.02879,-0.07502 -0.0713,-0.117438 -0.09447,-0.09427 -0.02317,0.02317 -0.01591,0.08455 0.01614,0.136395 0.08716,0.14102 0.138096,0.113624 0.07833,-0.04213 z m 12.314017,-0.327644 c -0.02452,-0.06077 -0.04458,-0.01105 -0.04458,0.110486 0,0.121533 0.02006,0.171252 0.04458,0.110485 0.02452,-0.06077 0.02452,-0.160204 0,-0.220971 z M 55.500073,54.425125 c -1.054176,-1.892229 -2.483878,-4.067046 -3.558965,-5.413786 -1.714504,-2.147722 -4.429596,-4.432066 -6.102652,-5.134468 -0.922971,-0.387492 -1.634361,-0.487969 -2.229646,-0.314915 -0.608435,0.176877 -1.182884,0.66509 -1.538935,1.307911 -0.239039,0.431565 -0.262186,0.547487 -0.262186,1.313045 0,1.508618 0.391059,2.055823 2.723832,3.811425 0.768904,0.578664 1.376582,1.017449 1.350396,0.97508 -0.02618,-0.04237 -0.655289,-0.549393 -1.398007,-1.12672 -0.742718,-0.577327 -1.525846,-1.229267 -1.740285,-1.448755 -0.768066,-0.786149 -1.070382,-1.993235 -0.76355,-3.048698 0.119798,-0.412092 0.251491,-0.616818 0.658753,-1.02408 0.654907,-0.654907 1.187077,-0.84042 1.992101,-0.694441 1.573929,0.285408 3.760691,1.743098 5.839398,3.892528 1.548401,1.601082 2.651753,3.117756 4.41719,6.071895 0.859986,1.439029 1.231185,1.944407 0.612556,0.833979 z m 10.378623,0.326944 c -0.05171,-0.148322 -0.110411,-0.253275 -0.130458,-0.233228 -0.04377,0.04377 0.123013,0.502906 0.182684,0.502906 0.02298,0 -5.3e-4,-0.121355 -0.05223,-0.269678 z m 2.284905,-0.188837 c -0.02822,-0.07051 -0.04916,-0.04957 -0.0534,0.0534 -0.0038,0.09318 0.01705,0.14538 0.04642,0.116009 0.02937,-0.02937 0.03251,-0.105606 0.007,-0.169411 z m 6.293761,-0.238771 c -0.05445,-0.156206 -0.114474,-0.268542 -0.13338,-0.249637 -0.01891,0.01891 0.01018,0.162178 0.06463,0.318383 0.05445,0.156205 0.114474,0.268542 0.133379,0.249636 0.01891,-0.0189 -0.01018,-0.162177 -0.06463,-0.318382 z m -9.307443,-1.599396 c -0.316682,-0.885538 -0.674471,-1.778465 -0.795088,-1.984282 -0.410076,-0.699741 -1.35622,-1.377962 -1.908463,-1.368037 -0.16547,0.003 -0.128266,0.03296 0.148123,0.119381 0.826893,0.258554 1.481738,0.864571 1.868223,1.728921 0.141291,0.315988 0.467597,1.161593 0.725124,1.879122 0.257529,0.717529 0.4839,1.288931 0.503049,1.269782 0.01915,-0.01915 -0.224287,-0.759348 -0.540968,-1.644887 z m 2.67589,0.735803 c -0.253625,-0.758487 -0.291248,-0.988574 -0.293979,-1.797879 -0.0028,-0.841494 0.02001,-0.975199 0.244899,-1.433167 0.264299,-0.538219 0.82545,-1.096794 1.367232,-1.360957 0.462361,-0.22544 1.562859,-0.27081 2.11317,-0.08712 0.519625,0.173447 1.193387,0.734967 1.477496,1.23136 0.115923,0.202539 0.500095,1.173735 0.853714,2.158214 0.35362,0.984479 0.655948,1.776958 0.671841,1.761065 0.07526,-0.07526 -1.141529,-3.406422 -1.453941,-3.980425 -0.26559,-0.487977 -0.772215,-0.938735 -1.349341,-1.200547 -0.440957,-0.200039 -1.483564,-0.24628 -2.043906,-0.09065 -1.207427,0.335355 -2.218292,1.901651 -2.078972,3.221286 0.0467,0.442342 0.681214,2.550038 0.747672,2.48358 0.01923,-0.01923 -0.09592,-0.426372 -0.255885,-0.904762 z m 8.591549,-0.389919 c -0.190135,-0.555617 -0.348735,-0.970512 -0.352442,-0.92199 -0.0099,0.129165 0.624226,2.006116 0.664222,1.96612 0.01866,-0.01866 -0.121645,-0.488514 -0.31178,-1.04413 z m -28.466679,-0.02712 c 0,-0.01835 -0.06961,-0.08796 -0.15468,-0.15468 -0.140189,-0.109943 -0.143315,-0.106817 -0.03337,0.03337 0.115467,0.147233 0.188051,0.194055 0.188051,0.121308 z M 47.33196,52.34498 c 0,-0.01382 -0.228705,-0.242519 -0.508233,-0.508233 l -0.508233,-0.483117 0.483117,0.508233 c 0.44883,0.472164 0.533349,0.548723 0.533349,0.483117 z"
     id="path43712"
     transform="scale(8)" />
</svg>
