<?xml version="1.0" standalone="no"?><!DOCTYPE svg PUBLIC "-//W3C//DTD SVG 1.1//EN" "http://www.w3.org/Graphics/SVG/1.1/DTD/svg11.dtd"><svg t="1641980288652" class="icon" viewBox="0 0 1024 1024" version="1.1" xmlns="http://www.w3.org/2000/svg" p-id="9632" width="32" height="32" xmlns:xlink="http://www.w3.org/1999/xlink"><defs><style type="text/css"></style></defs><path d="M512 85.333333c235.648 0 426.666667 191.018667 426.666667 426.666667s-191.018667 426.666667-426.666667 426.666667S85.333333 747.648 85.333333 512 276.352 85.333333 512 85.333333z m0 89.6a337.066667 337.066667 0 1 0 0 674.133334 337.066667 337.066667 0 0 0 0-674.133334z" p-id="9633"></path><path d="M551.381333 627.328v-9.813333c0-16.896 3.541333-31.658667 10.538667-45.738667 6.357333-12.672 15.488-24.618667 28.16-35.157333 33.706667-29.525333 54.144-48.512 60.458667-55.552 16.896-22.528 26.026667-51.370667 26.026666-86.528 0-42.88-14.08-76.629333-42.197333-101.248C606.208 267.946667 568.96 256 523.264 256c-52.053333 0-92.842667 14.762667-123.093333 44.288-30.933333 29.568-45.696 70.357333-45.696 122.410667h80.170666c0-29.568 5.632-52.778667 17.578667-68.949334 13.354667-19.669333 35.157333-28.842667 66.133333-28.842666 23.893333 0 42.88 6.357333 56.234667 19.712 12.672 13.354667 19.712 31.658667 19.712 54.869333 0 17.578667-6.357333 34.432-18.986667 49.92l-8.448 9.813333c-45.738667 40.832-73.173333 70.4-82.304 89.344-9.813333 18.986667-14.08 42.24-14.08 68.949334v9.813333h80.896zM512 768c15.488 0 28.16-4.906667 38.698667-14.762667 10.538667-9.813333 16.170667-23.210667 16.170666-38.698666 0-15.445333-5.632-28.16-15.488-37.973334a55.893333 55.893333 0 0 0-39.381333-14.762666c-15.488 0-28.16 4.906667-38.698667 14.762666-10.538667 9.813333-15.445333 22.528-15.445333 37.973334 0 15.488 4.906667 28.16 15.445333 37.973333 10.581333 9.856 23.210667 15.488 38.698667 15.488z" p-id="9634"></path></svg>