<?xml version="1.0" standalone="no"?><!DOCTYPE svg PUBLIC "-//W3C//DTD SVG 1.1//EN" "http://www.w3.org/Graphics/SVG/1.1/DTD/svg11.dtd"><svg t="1641980323890" class="icon" viewBox="0 0 1024 1024" version="1.1" xmlns="http://www.w3.org/2000/svg" p-id="10503" xmlns:xlink="http://www.w3.org/1999/xlink" width="32" height="32"><defs><style type="text/css"></style></defs><path d="M512.1 0.2C229.8 0.2 0.2 229.8 0.2 512.1S229.8 1024 512.1 1024 1024 794.4 1024 512.1 794.4 0.2 512.1 0.2z m0 958.1c-246 0-446.2-200.2-446.2-446.2S266 65.9 512.1 65.9s446.2 200.2 446.2 446.2-200.1 446.2-446.2 446.2z" p-id="10504"></path><path d="M418.2 306.8c-18.1 0-32.8 14.7-32.8 32.8v345c0 18.1 14.7 32.8 32.8 32.8s32.8-14.7 32.8-32.8v-345c0.1-18.1-14.6-32.8-32.8-32.8zM606 306.8c-18.1 0-32.8 14.7-32.8 32.8v345c0 18.1 14.7 32.8 32.8 32.8 18.1 0 32.8-14.7 32.8-32.8v-345c0-18.1-14.7-32.8-32.8-32.8z" p-id="10505"></path></svg>